<?xml version="1.0" standalone="no"?>
<!DOCTYPE svg PUBLIC "-//W3C//DTD SVG 1.1//EN" "http://www.w3.org/Graphics/SVG/1.1/DTD/svg11.dtd">
<!--Generator: Xara Designer (www.xara.com), SVG filter version: 3.0.2.3-->
<svg stroke-width="0.501" stroke-linejoin="bevel" fill-rule="evenodd" xmlns:xlink="http://www.w3.org/1999/xlink" xmlns="http://www.w3.org/2000/svg" version="1.1" overflow="visible" width="720pt" height="720pt" viewBox="0 0 720 720">
 <defs>
  <marker id="DefaultArrow2" markerUnits="strokeWidth" viewBox="0 0 1 1" markerWidth="1" markerHeight="1" overflow="visible" orient="auto">
   <!-- REF_ARROW_STRAIGHT (-2) -->
   <g transform="scale(0.0092592592)">
    <!-- 1/108 -->
    <path d="M -9 54 L -9 -54 L 117 0 z"/>
   </g>
  </marker>
  <marker id="DefaultArrow3" markerUnits="strokeWidth" viewBox="0 0 1 1" markerWidth="1" markerHeight="1" overflow="visible" orient="auto">
   <!-- REF_ARROW_ANGLED -->
   <g transform="scale(0.0092592592)">
    <path d="M -27 54 L -9 0 L -27 -54 L 135 0 z"/>
   </g>
  </marker>
  <marker id="DefaultArrow4" markerUnits="strokeWidth" viewBox="0 0 1 1" markerWidth="1" markerHeight="1" overflow="visible" orient="auto">
   <!-- REF_ARROW_ROUNDED -->
   <g transform="scale(0.0092592592)">
    <path d="M -9,0 L -9,-45 C -9,-51.708 2.808,-56.580 9,-54 L 117,-9 C 120.916,-7.369 126.000,-4.242 126,0 C 126,4.242 120.916,7.369 117,9 L 9,54 C 2.808,56.580 -9,51.708 -9,45 z"/>
   </g>
  </marker>
  <marker id="DefaultArrow5" markerUnits="strokeWidth" viewBox="0 0 1 1" markerWidth="1" markerHeight="1" overflow="visible" orient="auto">
   <!-- REF_ARROW_SPOT -->
   <g transform="scale(0.0092592592)">
    <path d="M -54, 0 C -54,29.807 -29.807,54 0,54 C 29.807,54 54,29.807 54,0 C 54,-29.807 29.807,-54 0,-54 C -29.807,-54 -54,-29.807 -54,0 z"/>
   </g>
  </marker>
  <marker id="DefaultArrow6" markerUnits="strokeWidth" viewBox="0 0 1 1" markerWidth="1" markerHeight="1" overflow="visible" orient="auto">
   <!-- REF_ARROW_DIAMOND -->
   <g transform="scale(0.0092592592)">
    <path d="M -63,0 L 0,63 L 63,0 L 0,-63 z"/>
   </g>
  </marker>
  <marker id="DefaultArrow7" markerUnits="strokeWidth" viewBox="0 0 1 1" markerWidth="1" markerHeight="1" overflow="visible" orient="auto">
   <!-- REF_ARROW_FEATHER -->
   <g transform="scale(0.0092592592)">
    <path d="M 18,-54 L 108,-54 L 63,0 L 108,54 L 18, 54 L -36,0 z"/>
   </g>
  </marker>
  <marker id="DefaultArrow8" markerUnits="strokeWidth" viewBox="0 0 1 1" markerWidth="1" markerHeight="1" overflow="visible" orient="auto">
   <!-- REF_ARROW_FEATHER2 -->
   <g transform="scale(0.0092592592)">
    <path d="M -36,0 L 18,-54 L 54,-54 L 18,-18 L 27,-18 L 63,-54 L 99,-54 L 63,-18 L 72,-18 L 108,-54 L 144,-54 L 90,0 L 144,54 L 108,54 L 72,18 L 63,18 L 99,54 L 63,54 L 27,18 L 18,18 L 54,54 L 18,54 z"/>
   </g>
  </marker>
  <marker id="DefaultArrow9" markerUnits="strokeWidth" viewBox="0 0 1 1" markerWidth="1" markerHeight="1" overflow="visible" orient="auto">
   <!-- REF_ARROW_HOLLOWDIAMOND -->
   <g transform="scale(0.0092592592)">
    <path d="M 0,45 L -45,0 L 0, -45 L 45, 0 z M 0, 63 L-63, 0 L 0, -63 L 63, 0 z"/>
   </g>
  </marker>
  <filter id="StainedFilter">
   <feBlend mode="multiply" in2="BackgroundImage" in="SourceGraphic" result="blend"/>
   <feComposite in="blend" in2="SourceAlpha" operator="in" result="comp"/>
  </filter>
  <filter id="BleachFilter">
   <feBlend mode="screen" in2="BackgroundImage" in="SourceGraphic" result="blend"/>
   <feComposite in="blend" in2="SourceAlpha" operator="in" result="comp"/>
  </filter>
  <filter id="InvertTransparencyBitmapFilter">
   <feComponentTransfer>
    <feFuncR type="gamma" amplitude="1.055" exponent=".416666666" offset="-0.055"/>
    <feFuncG type="gamma" amplitude="1.055" exponent=".416666666" offset="-0.055"/>
    <feFuncB type="gamma" amplitude="1.055" exponent=".416666666" offset="-0.055"/>
   </feComponentTransfer>
   <feComponentTransfer>
    <feFuncR type="linear" slope="-1" intercept="1"/>
    <feFuncG type="linear" slope="-1" intercept="1"/>
    <feFuncB type="linear" slope="-1" intercept="1"/>
    <feFuncA type="linear" slope="1" intercept="0"/>
   </feComponentTransfer>
   <feComponentTransfer>
    <feFuncR type="gamma" amplitude="1" exponent="2.4" offset="0"/>
    <feFuncG type="gamma" amplitude="1" exponent="2.4" offset="0"/>
    <feFuncB type="gamma" amplitude="1" exponent="2.4" offset="0"/>
   </feComponentTransfer>
  </filter>
 </defs>
 <g id="Document" fill="none" stroke="black" font-family="Times New Roman" font-size="16" transform="scale(1 -1)">
  <g id="Spread" transform="translate(0 -720)">
   <g id="SVG Document">
    <g id="Group" fill="#004040" stroke-linejoin="miter" stroke="none" stroke-width="1" stroke-miterlimit="79.8403193612775">
     <path d="M 342.927,688.185 C 346.967,695.055 355.327,699.145 363.217,697.715 C 370.797,696.605 377.377,690.685 379.357,683.305 C 380.377,679.705 380.267,675.905 379.807,672.235 C 378.677,672.205 377.547,672.195 376.417,672.195 C 375.987,677.665 376.437,683.805 372.407,688.155 C 366.347,696.025 353.037,695.725 347.347,687.575 C 343.717,683.265 344.267,677.435 343.797,672.205 C 342.667,672.195 341.547,672.205 340.417,672.215 C 339.657,677.615 339.977,683.455 342.927,688.185 Z" marker-start="none" marker-end="none"/>
     <path d="M 337.787,665.985 C 338.547,667.835 339.727,670.205 342.136,669.885 C 344.487,670.165 345.707,667.875 346.337,666.005 C 355.487,665.955 364.637,665.965 373.787,665.995 C 374.537,667.825 375.697,670.175 378.087,669.895 C 380.457,670.185 381.717,667.895 382.337,665.995 C 386.047,665.715 389.977,666.585 393.557,665.455 C 396.187,656.025 398.177,646.385 400.147,636.784 C 399.697,636.475 398.797,635.845 398.347,635.534 C 399.427,626.424 401.727,617.394 401.837,608.235 C 399.287,608.004 396.717,607.915 394.157,607.964 C 394.127,607.464 394.077,606.475 394.057,605.975 C 392.087,605.975 390.127,605.975 388.157,605.975 C 388.137,606.475 388.077,607.475 388.057,607.975 C 369.427,607.975 350.787,607.975 332.157,607.975 C 332.137,607.475 332.077,606.475 332.057,605.975 C 330.087,605.975 328.127,605.975 326.156,605.975 C 326.137,606.475 326.087,607.475 326.057,607.975 C 323.607,608.114 320.927,607.504 318.627,608.515 C 317.747,609.905 318.367,611.585 318.487,613.085 C 319.677,620.555 320.697,628.055 321.867,635.534 C 321.417,635.845 320.517,636.475 320.067,636.784 C 321.647,645.435 323.897,653.945 325.737,662.545 C 326.217,663.585 325.987,665.365 327.297,665.755 C 330.767,666.255 334.297,665.865 337.787,665.985 M 329.667,661.965 C 327.987,654.285 326.087,646.645 324.537,638.935 C 347.707,632.475 372.587,632.314 395.717,639.025 C 394.007,646.675 392.277,654.325 390.547,661.965 C 370.247,661.975 349.957,661.985 329.667,661.965 M 325.727,634.555 C 324.627,627.025 323.537,619.504 322.407,611.985 C 347.537,611.975 372.677,611.955 397.807,611.994 C 396.637,619.494 395.547,627.004 394.427,634.515 C 385.067,632.195 375.517,630.604 365.877,630.125 C 364.787,628.275 363.407,626.324 361.077,626.085 C 358.077,625.435 355.597,627.615 354.327,630.104 C 344.677,630.655 335.087,632.155 325.727,634.555 Z" marker-start="none" marker-end="none"/>
    </g>
    <g id="Group_1" fill="#004040" stroke-linejoin="miter" stroke="none" stroke-width="1" stroke-miterlimit="79.8403193612775">
     <g id="Group_2">
      <path d="M 356.19,554 L 362.47,554 C 365.42,553.71 368.4,553.32 371.24,552.41 C 374.519,551.32 376.15,547.73 379.44,546.68 C 382.44,545.59 385.65,545.03 388.42,543.39 C 393.79,540.1 398.14,535.01 399.99,528.94 C 402.95,519.73 407.57,511.11 410,501.72 L 410,468.57 C 404.19,467.769 398.24,467.589 392.43,468.449 C 391.26,476.93 392.59,485.559 391.82,494.08 C 391.15,497.42 389.43,500.42 388.04,503.5 C 387.95,491.66 388.02,479.82 388,467.98 C 387.94,463.32 388.43,458.58 387.31,454 L 332.58,454 C 331.79,470.65 332.52,487.35 332.2,504.02 C 330.36,499.86 327.74,495.74 327.97,491.01 C 327.65,483.5 328.72,475.87 327.47,468.44 C 321.7,467.529 315.79,467.889 310,468.48 L 310,501.9 C 312.52,511.2 317.02,519.79 320.01,528.93 C 322.58,537.12 329.54,543.88 337.94,545.86 C 340.7,546.49 343.21,547.84 345.12,549.94 C 347.94,553.01 352.34,553.28 356.19,554 M 351.11,548.98 C 354.06,544.52 357.05,540.08 360,535.62 C 362.95,540.08 365.94,544.52 368.89,548.98 C 363.05,550.35 356.95,550.35 351.11,548.98 M 345.61,544.67 C 346.41,539.34 348.17,534.2 349.32,528.93 C 351.9,530.2 354.47,531.48 357.04,532.76 C 353.85,537.55 350.76,542.43 347.35,547.07 C 346.91,546.47 346.04,545.27 345.61,544.67 M 362.96,532.75 C 365.53,531.48 368.1,530.2 370.68,528.93 C 371.83,534.21 373.58,539.36 374.41,544.7 C 373.94,545.29 373.02,546.47 372.56,547.07 C 369.26,542.36 366.13,537.55 362.96,532.75 M 336.45,541.16 C 337.41,534.53 337.84,527.8 337.35,521.11 C 337.08,517.74 336.24,514.43 336.23,511.03 C 336.27,493.36 336.25,475.68 336.24,458.01 C 352.16,457.989 368.08,458.01 384,458 C 384.01,474.669 383.98,491.33 384.02,508 C 384.09,513.39 382.68,518.66 382.54,524.04 C 382.26,529.78 382.62,535.53 383.53,541.21 C 381.79,541.74 380.04,542.26 378.3,542.77 C 376.92,537.46 375.62,532.12 374.28,526.8 C 373.89,525.67 373.53,523.55 371.82,524.04 C 367.71,525.56 363.97,527.92 360,529.75 C 356.51,528.07 353.11,526.19 349.6,524.56 C 348.53,523.88 346.57,523.6 346.27,525.26 C 344.44,531.05 343.32,537.05 341.59,542.87 C 339.88,542.3 338.16,541.74 336.45,541.16 M 323.89,527.98 C 321.19,519.06 316.63,510.8 314.23,501.8 C 313.68,491.89 314.16,481.93 314,472 C 317.33,472 320.67,472 324,472 C 323.99,478 324.03,484 323.97,490 C 323.32,498.92 329.77,506.05 332.31,514.16 C 334.15,522.44 333.57,531.01 332.65,539.36 C 328.84,536.39 325.26,532.74 323.89,527.98 M 387.29,539.35 C 386.15,530.88 386.06,522.17 387.75,513.77 C 390.19,507.41 394.01,501.58 395.82,494.97 C 396.27,487.33 395.86,479.65 396,472 C 399.33,472 402.67,472 406,472 C 406,480.66 405.98,489.33 406.02,497.99 C 406.07,500.4 405.73,502.81 404.87,505.07 C 402.02,513.07 398.33,520.76 395.79,528.87 C 394.31,533.27 390.89,536.6 387.29,539.35 Z" marker-start="none" marker-end="none"/>
      <path d="M 350.32,511.64 C 352.82,512.78 356.18,510.87 355.92,507.99 C 356.26,504.53 351.35,502.68 349.15,505.23 C 347.17,507.05 347.91,510.57 350.32,511.64 Z" marker-start="none" marker-end="none"/>
      <path d="M 368.34,511.65 C 370.83,512.76 374.16,510.88 373.92,508.02 C 374.29,504.59 369.48,502.71 367.23,505.14 C 365.16,506.95 365.87,510.58 368.34,511.65 Z" marker-start="none" marker-end="none"/>
      <path d="M 350.32,495.64 C 352.81,496.77 356.16,494.88 355.92,492.02 C 356.29,488.55 351.37,486.68 349.16,489.21 C 347.17,491.04 347.9,494.56 350.32,495.64 Z" marker-start="none" marker-end="none"/>
      <path d="M 368.27,495.61 C 370.77,496.82 374.18,494.88 373.92,491.99 C 374.26,488.54 369.39,486.69 367.17,489.199 C 365.19,491 365.88,494.52 368.27,495.61 Z" marker-start="none" marker-end="none"/>
      <path d="M 350.28,479.61 C 352.75,480.809 356.15,478.91 355.92,476.04 C 356.31,472.58 351.41,470.68 349.18,473.19 C 347.19,474.989 347.87,478.529 350.28,479.61 Z" marker-start="none" marker-end="none"/>
      <path d="M 368.35,479.66 C 373.04,481.9 376.32,474.3 371.65,472.339 C 366.95,470.11 363.63,477.69 368.35,479.66 Z" marker-start="none" marker-end="none"/>
     </g>
    </g>
    <g id="Group_3" fill="#000140" stroke-linejoin="miter" stroke="none" stroke-width="1" stroke-miterlimit="79.8403193612775">
     <g id="Group_4">
      <path d="M 178.079,403.899 C 185.269,407.779 194.389,409.659 202.069,406.059 C 209.029,402.919 213.749,395.639 213.959,388.029 C 214.269,375.359 211.949,362.769 212.549,350.089 C 212.649,341.738 214.549,333.319 213.039,324.999 C 212.149,319.838 208.639,315.068 203.589,313.338 C 196.579,310.799 187.579,311.549 182.349,317.329 C 177.289,323.189 177.399,331.338 175.779,338.509 C 173.399,352.099 167.239,364.799 165.999,378.619 L 165.999,382.489 C 166.319,390.989 170.399,399.709 178.079,403.899 M 188.509,403.479 C 181.669,402.329 174.909,398.379 172.199,391.729 C 167.629,381.459 171.189,370.099 174.209,359.929 C 176.799,351.699 179.099,343.359 180.499,334.838 C 181.459,329.619 181.909,323.838 185.649,319.719 C 189.229,315.708 195.269,315.488 200.189,316.479 C 203.999,317.079 207.359,319.819 208.489,323.539 C 210.909,330.869 209.019,338.598 208.729,346.079 C 207.719,359.069 209.719,372.009 210.019,384.979 C 210.169,390.049 208.979,395.509 205.219,399.159 C 200.929,403.489 194.339,404.859 188.509,403.479 Z" marker-start="none" marker-end="none"/>
      <path d="M 218.199,389.889 C 219.139,399.729 228.089,407.819 237.929,407.989 C 246.009,407.979 254.519,405.159 259.939,398.939 C 263.929,394.399 265.609,388.329 265.999,382.399 L 265.999,378.679 C 264.899,365.659 259.249,353.669 256.719,340.948 C 255.539,335.749 254.979,330.418 253.669,325.249 C 252.339,320.069 248.959,315.098 243.729,313.289 C 237.089,310.929 228.829,311.549 223.429,316.399 C 218.719,320.869 218.099,327.859 218.409,333.979 C 218.959,342.969 219.929,351.969 219.359,360.979 C 219.009,370.619 217.479,380.249 218.199,389.889 M 234.409,403.449 C 227.389,401.859 222.219,395.219 222.089,388.059 C 221.679,376.369 223.789,364.749 223.519,353.059 C 223.609,345.329 222.159,337.659 222.329,329.929 C 222.559,325.259 223.929,319.679 228.589,317.549 C 232.819,315.729 237.809,315.429 242.179,316.918 C 246.849,318.569 249.349,323.458 250.229,328.049 C 251.479,334.329 252.409,340.689 254.029,346.889 C 256.579,357.589 261.119,367.859 261.949,378.919 C 262.419,386.729 259.869,395.529 252.899,399.889 C 247.459,403.179 240.689,404.829 234.409,403.449 Z" marker-start="none" marker-end="none"/>
      <path d="M 178.159,380.849 C 180.249,387.099 184.559,392.399 189.999,396.049 C 199.119,391.089 203.989,380.839 205.479,370.929 C 206.019,364.409 205.899,357.719 204.399,351.329 C 204.079,348.889 200.629,346.549 198.989,349.239 C 197.819,353.529 202.339,356.799 202.269,361.089 C 203.089,371.979 197.229,382.279 189.979,389.989 C 182.419,382.069 179.319,370.639 180.039,359.889 C 180.349,355.639 181.669,350.659 185.959,348.799 C 187.979,348.039 188.269,345.719 186.779,344.259 C 183.379,342.439 180.179,346.239 179.109,349.159 C 175.519,359.239 174.709,370.629 178.159,380.849 Z" marker-start="none" marker-end="none"/>
      <path d="M 229.539,381.609 C 232.089,387.549 236.219,392.969 241.999,396.049 C 247.429,392.399 251.739,387.109 253.819,380.869 C 257.099,371.439 256.429,361.039 253.729,351.549 C 252.869,348.429 251.229,345.049 247.969,343.889 C 245.849,342.869 243.369,345.499 244.469,347.589 C 246.149,349.249 248.779,349.899 249.839,352.159 C 252.199,356.379 252.199,361.389 251.949,366.089 C 251.269,374.809 248.159,383.599 242.019,389.989 C 235.319,382.939 230.109,373.829 229.569,363.949 C 229.289,360.249 230.698,356.769 232.459,353.609 C 233.509,351.909 233.859,349.279 231.849,348.119 C 228.979,347.439 227.469,350.609 227.159,352.929 C 225.729,362.469 225.389,372.659 229.539,381.609 Z" marker-start="none" marker-end="none"/>
     </g>
    </g>
    <g id="Group_5" fill="#403f00" stroke-linejoin="miter" stroke="none" stroke-width="1" stroke-miterlimit="79.8403193612775">
     <g id="Group_6">
      <path d="M 472.208,537.734 C 473.488,539.054 475.758,539.314 477.198,538.114 C 479.708,535.954 481.128,532.874 482.508,529.934 C 481.368,529.524 480.238,529.084 479.108,528.614 C 477.748,530.784 476.338,532.924 474.928,535.074 C 469.008,525.004 464.858,514.014 459.818,503.494 C 468.498,504.754 477.328,505.344 486.088,504.634 C 489.808,504.374 493.428,503.314 497.158,503.274 C 499.118,503.724 500.978,504.534 502.958,504.874 C 506.648,505.454 509.898,502.434 513.598,503.454 C 525.008,505.684 536.768,505.174 548.208,503.424 C 543.108,513.944 539.028,524.984 533.058,535.054 C 531.658,532.924 530.248,530.784 528.888,528.624 C 527.768,529.074 526.638,529.494 525.498,529.904 C 526.988,533.024 528.418,536.534 531.398,538.514 C 534.938,540.114 537.348,536.214 538.648,533.544 C 543.918,522.534 549.008,511.424 553.998,500.284 L 553.998,498.374 C 552.648,497.014 550.158,496.204 550.108,493.974 C 549.688,489.623 549.148,485.074 546.448,481.453 C 542.498,475.434 534.958,473.053 528.068,472.913 C 522.058,472.714 515.308,474.494 511.798,479.773 C 507.748,485.693 507.918,493.204 508.018,500.064 C 505.378,501.044 502.608,501.044 499.978,500.064 C 500.068,492.974 500.238,485.123 495.758,479.174 C 491.678,473.754 484.258,472.434 477.878,473.023 C 471.148,473.504 464.078,476.574 460.777,482.773 C 458.298,486.593 458.398,491.274 457.608,495.594 C 456.518,496.614 455.218,497.364 453.998,498.204 L 453.998,500.294 C 458.568,510.534 463.288,520.704 468.028,530.874 C 469.198,533.274 470.297,535.814 472.208,537.734 M 459.968,499.434 C 462.918,495.094 461.328,489.404 464.088,484.994 C 466.548,480.224 471.758,477.663 476.928,477.154 C 482.288,476.464 488.758,476.904 492.388,481.464 C 496.248,486.434 495.978,493.134 496.008,499.094 C 484.158,501.564 471.878,501.414 459.968,499.434 M 511.988,499.094 C 512.008,492.924 511.738,485.864 516.068,480.904 C 520.118,476.584 526.688,476.464 532.138,477.314 C 537.208,477.953 542.078,480.934 544.298,485.644 C 546.628,489.894 545.018,495.314 548.208,499.214 C 536.288,501.564 523.898,501.504 511.988,499.094 Z" marker-start="none" marker-end="none"/>
     </g>
    </g>
    <g id="Group_7" stroke-linejoin="miter" stroke="none" stroke-width="1" fill="#40003f" stroke-miterlimit="79.8403193612775">
     <path d="M 63.422,405.601 C 65.592,406.991 68.732,404.731 67.832,402.261 C 67.412,400.031 64.292,399.351 62.822,400.951 C 61.492,402.211 61.812,404.731 63.422,405.601 Z" marker-start="none" marker-end="none"/>
     <path d="M 71.142,406.041 C 73.472,407.041 75.232,403.251 72.722,402.391 C 70.552,401.191 68.762,404.881 71.142,406.041 Z" marker-start="none" marker-end="none"/>
     <path d="M 77.392,405.591 C 80.642,407.661 83.822,402.531 80.622,400.521 C 77.352,398.261 74.052,403.671 77.392,405.591 Z" marker-start="none" marker-end="none"/>
     <path d="M 55.432,401.611 C 58.622,403.611 61.792,398.591 58.682,396.571 C 55.432,394.161 51.972,399.711 55.432,401.611 Z" marker-start="none" marker-end="none"/>
     <path d="M 85.462,401.631 C 88.672,403.571 91.762,398.581 88.672,396.551 C 85.372,394.181 81.982,399.761 85.462,401.631 Z" marker-start="none" marker-end="none"/>
     <path d="M 49.352,395.681 C 51.232,396.881 54.171,395.431 53.942,393.091 C 54.032,390.611 50.482,389.171 48.892,391.071 C 47.502,392.271 47.752,394.851 49.352,395.681 Z" marker-start="none" marker-end="none"/>
     <path d="M 91.332,395.671 C 94.572,397.851 97.892,392.581 94.532,390.651 C 91.352,388.421 88.062,393.861 91.332,395.671 Z" marker-start="none" marker-end="none"/>
     <path d="M 45.332,387.671 C 48.542,389.841 51.882,384.651 48.582,382.681 C 45.402,380.371 42.042,385.841 45.332,387.671 Z" marker-start="none" marker-end="none"/>
     <path d="M 95.352,387.681 C 98.582,389.831 101.862,384.621 98.562,382.681 C 95.392,380.361 92.032,385.891 95.352,387.681 Z" marker-start="none" marker-end="none"/>
     <path d="M 43.272,379.841 C 46.942,381.501 51.372,377.091 49.622,373.421 C 48.452,369.831 43.162,369.011 41.022,372.171 C 38.872,374.701 40.252,378.781 43.272,379.841 M 44.162,376.001 C 43.622,374.381 44.172,373.821 45.802,374.321 C 46.342,375.941 45.792,376.501 44.162,376.001 Z" marker-start="none" marker-end="none"/>
     <path d="M 97.242,379.831 C 100.892,381.521 105.352,377.141 103.642,373.461 C 102.492,369.851 97.192,369.001 95.042,372.151 C 92.872,374.671 94.232,378.751 97.242,379.831 M 98.142,375.981 C 97.642,374.351 98.202,373.801 99.822,374.341 C 100.322,375.971 99.762,376.521 98.142,375.981 Z" marker-start="none" marker-end="none"/>
     <path d="M 43.232,367.831 C 46.892,369.531 51.352,365.141 49.632,361.451 C 48.492,357.861 43.212,357.001 41.052,360.131 C 38.872,362.651 40.222,366.731 43.232,367.831 M 44.152,363.991 C 43.632,362.371 44.182,361.811 45.812,362.331 C 46.332,363.951 45.782,364.511 44.152,363.991 Z" marker-start="none" marker-end="none"/>
     <path d="M 97.252,367.831 C 100.902,369.521 105.352,365.141 103.642,361.461 C 102.492,357.831 97.132,356.991 95.002,360.201 C 92.882,362.721 94.252,366.761 97.252,367.831 M 98.152,363.991 C 97.632,362.361 98.192,361.811 99.812,362.331 C 100.332,363.961 99.772,364.511 98.152,363.991 Z" marker-start="none" marker-end="none"/>
     <path d="M 47.242,355.831 C 50.032,357.071 53.412,354.881 53.922,351.991 C 54.702,348.161 49.912,344.54 46.542,346.861 C 42.862,348.691 43.362,354.561 47.242,355.831 M 48.162,352.001 C 47.622,350.371 48.172,349.821 49.802,350.321 C 50.342,351.951 49.792,352.501 48.162,352.001 Z" marker-start="none" marker-end="none"/>
     <path d="M 93.232,355.821 C 96.902,357.541 101.392,353.091 99.612,349.411 C 98.442,345.79 93.002,344.991 90.982,348.291 C 88.872,350.781 90.292,354.761 93.232,355.821 M 94.162,352.001 C 93.622,350.371 94.172,349.821 95.802,350.321 C 96.332,351.951 95.792,352.501 94.162,352.001 Z" marker-start="none" marker-end="none"/>
     <path d="M 56.252,349.901 C 60.792,351.611 65.792,346.051 63.442,341.741 C 61.812,337.671 55.752,336.891 53.242,340.531 C 50.562,343.631 52.392,348.831 56.252,349.901 M 57.072,346.081 C 54.762,344.911 56.452,341.33 58.832,342.211 C 61.082,343.54 59.562,347.031 57.072,346.081 Z" marker-start="none" marker-end="none"/>
     <path d="M 84.222,349.891 C 88.772,351.641 93.802,346.071 91.432,341.731 C 89.802,337.65 83.722,336.891 81.222,340.561 C 78.572,343.661 80.412,348.781 84.222,349.891 M 85.082,346.081 C 82.242,344.811 85.372,340.421 87.312,342.76 C 89.102,344.231 87.041,346.941 85.082,346.081 Z" marker-start="none" marker-end="none"/>
     <path d="M 64.742,336.841 C 62.502,341.121 65.382,346.931 70.082,347.901 C 75.582,349.571 81.352,343.72 79.752,338.241 C 79.042,335.18 76.322,333.321 73.642,332.071 C 75.132,328.911 78.852,327.321 80.002,324.04 C 78.542,321.04 76.222,318.571 74.292,315.87 C 73.622,314.72 72.372,314.281 71.212,313.79 C 68.892,317.311 65.812,320.33 63.912,324.12 C 65.302,327.281 68.672,329.01 70.392,331.991 C 68.192,333.15 65.792,334.44 64.742,336.841 M 70.272,343.761 C 67.852,342.701 67.172,339.161 69.162,337.36 C 70.962,335.33 74.572,336.031 75.612,338.5 C 77.262,341.641 73.432,345.521 70.272,343.761 M 68.682,324 C 69.782,322.51 70.872,321.021 71.952,319.521 C 73.062,321.01 74.182,322.5 75.292,323.981 C 74.192,325.08 73.092,326.18 71.982,327.281 C 70.882,326.19 69.782,325.101 68.682,324 Z" marker-start="none" marker-end="none"/>
    </g>
    <g id="Group_8" fill="#400000" stroke-linejoin="miter" stroke="none" stroke-width="1" stroke-miterlimit="79.8403193612775">
     <path d="M 638.889,545.069 C 640.709,548.409 644.999,548.609 648.009,546.839 C 651.009,548.619 655.299,548.409 657.119,545.079 C 659.329,541.959 657.129,538.249 654.559,536.189 C 655.999,535.469 657.279,534.199 658.959,534.079 C 664.349,533.799 669.749,534.309 675.139,533.899 C 681.059,533.549 686.059,528.059 685.959,522.149 C 686.119,515.159 685.939,508.159 686.009,501.169 C 691.569,496.859 694.319,489.939 694.019,482.989 C 694.299,476.329 688.569,471.649 683.409,468.529 C 669.359,460.459 652.419,458.889 636.579,460.768 C 625.279,462.368 613.399,465.889 605.309,474.378 C 600.729,479.018 601.669,486.169 603.299,491.889 C 604.339,495.699 607.209,498.549 610.009,501.159 C 610.069,508.149 609.899,515.149 610.059,522.129 C 609.959,528.069 614.979,533.569 620.919,533.899 C 625.979,534.279 631.059,533.879 636.119,534.019 C 638.169,533.849 639.779,535.269 641.449,536.189 C 638.899,538.249 636.689,541.939 638.889,545.069 M 643.199,543.909 C 640.719,543.009 642.459,539.089 644.849,540.089 C 647.089,541.299 645.649,544.929 643.199,543.909 M 651.209,543.929 C 648.179,542.849 651.439,538.159 653.349,540.659 C 655.119,542.039 653.109,544.799 651.209,543.929 M 645.769,536.289 C 645.469,535.729 644.879,534.589 644.579,534.019 C 646.959,534.019 649.339,534.029 651.729,534.119 C 650.719,535.449 649.539,536.629 648.229,537.659 C 647.619,537.319 646.389,536.629 645.769,536.289 M 614.049,522.059 C 613.909,516.549 613.999,511.019 614.089,505.499 C 615.449,507.589 616.979,509.659 617.659,512.089 C 618.409,515.289 617.619,518.639 618.309,521.839 C 619.159,524.659 622.139,526.299 624.999,526.049 C 640.349,526.019 655.709,526.019 671.069,526.049 C 673.159,526.129 675.399,525.469 676.699,523.709 C 678.699,521.249 677.779,517.889 678.029,514.979 C 677.869,511.439 679.909,508.379 681.929,505.649 C 681.969,511.489 682.219,517.349 681.859,523.179 C 681.439,527.459 677.179,530.399 673.029,530.029 C 655.969,529.989 638.909,530.109 621.849,529.979 C 617.629,530.049 613.939,526.269 614.049,522.059 M 622.009,517.019 C 622.909,508.469 616.489,501.709 610.719,496.329 C 606.279,492.499 605.409,485.978 606.359,480.518 C 609.439,473.739 616.819,470.529 623.309,467.838 C 620.219,474.349 618.949,481.939 620.999,488.949 C 622.729,495.899 627.619,501.549 629.249,508.519 C 629.729,511.099 629.939,513.749 630.879,516.219 C 631.599,516.069 633.039,515.779 633.759,515.639 C 635.029,506.599 629.279,498.939 625.919,491.069 C 622.379,482.919 623.999,473.189 629.259,466.149 C 641.549,463.279 654.509,463.329 666.799,466.198 C 672.019,473.219 673.629,482.929 670.109,491.049 C 666.939,498.519 661.679,505.599 662.049,514.099 C 661.999,516.129 664.279,516.009 665.679,515.859 C 665.809,508.519 668.979,501.859 672.459,495.579 C 677.089,487.039 677.049,476.489 672.709,467.859 C 679.209,470.518 686.569,473.739 689.659,480.509 C 690.619,485.978 689.719,492.559 685.249,496.369 C 681.209,500.019 677.469,504.159 675.139,509.129 C 673.419,512.779 674.319,516.919 673.869,520.799 C 673.159,522.309 671.399,521.969 670.059,522.059 C 654.669,521.949 639.279,522.139 623.899,521.969 C 621.319,521.969 622.179,518.679 622.009,517.019 Z" marker-start="none" marker-end="none"/>
    </g>
    <g id="Group_9" fill="#40003f" stroke-linejoin="miter" stroke="none" stroke-width="1" stroke-miterlimit="79.8403193612775">
     <g id="Group_10">
      <path d="M 40.221,546.819 C 40.571,548.259 42.441,547.829 43.531,547.839 C 57.931,546.079 72.501,545.429 86.981,546.539 C 92.581,546.769 98.111,547.909 103.731,547.829 C 104.161,543.869 103.641,539.809 104.591,535.909 C 110.461,514.109 116.101,492.239 122.001,470.439 L 122.001,468.948 C 116.201,463.848 108.161,462.888 100.841,461.649 C 85.911,459.749 70.811,459.649 55.801,460.439 C 46.781,461.058 37.641,461.888 29.031,464.838 C 26.401,465.649 24.111,467.219 22.001,468.948 L 22.001,470.439 C 27.881,492.219 33.531,514.059 39.391,535.839 C 40.401,539.419 39.701,543.179 40.221,546.819 M 43.991,543.759 C 44.001,542.769 44.001,540.799 44.001,539.809 C 62.571,537.399 81.431,537.399 100.001,539.809 C 100.001,541.129 100.001,542.449 100.001,543.769 C 81.431,541.399 62.571,541.419 43.991,543.759 M 39.911,522.049 C 45.591,524.099 50.531,528.689 51.451,534.869 C 48.811,535.159 46.161,535.439 43.521,535.739 C 42.291,531.189 41.021,526.639 39.911,522.049 M 55.491,534.569 C 54.6,530.889 53.351,527.139 50.591,524.419 C 47.491,520.789 42.951,519.099 38.691,517.299 C 34.371,501.809 30.511,486.168 26.171,470.679 C 32.151,467.198 39.191,466.268 45.931,465.348 C 63.271,463.488 80.841,463.488 98.181,465.359 C 104.881,466.289 111.901,467.198 117.831,470.698 C 113.531,486.229 109.511,501.839 105.361,517.399 C 97.231,519.649 89.681,525.799 88.521,534.569 C 77.521,533.829 66.491,533.809 55.491,534.569 M 92.561,534.879 C 93.461,528.689 98.411,524.099 104.091,522.049 C 102.981,526.639 101.721,531.199 100.461,535.749 C 97.831,535.439 95.191,535.159 92.561,534.879 Z" marker-start="none" marker-end="none"/>
     </g>
    </g>
    <g id="Group_11" fill="#400000" stroke-linejoin="miter" stroke="none" stroke-width="1" stroke-miterlimit="79.8403193612775">
     <g id="Group_12">
      <path d="M 620.627,698 L 675.167,698 C 675.747,696.39 676.067,694.7 676.027,692.99 C 675.957,665.32 676.017,637.65 675.997,609.989 C 675.937,605.989 676.417,601.9 675.267,598 L 654.567,598 C 652.697,600.209 653.097,603.279 652.667,605.949 C 651.117,619.699 649.737,633.48 647.997,647.2 C 646.097,632.129 644.587,617 642.887,601.9 C 642.737,600.55 642.297,599.25 641.777,598 L 620.697,598 C 620.437,599.65 620.227,601.319 620.217,602.989 C 620.287,630.65 620.217,658.31 620.247,685.97 C 620.267,689.98 619.997,694.02 620.627,698 M 624.237,693.98 C 624.237,692.66 624.247,691.33 624.247,690.01 C 640.167,689.99 656.077,690 671.997,690 C 671.997,691.33 671.997,692.67 671.997,694 C 656.077,693.99 640.157,694.02 624.237,693.98 M 624.237,685.98 C 624.317,681.38 624.067,676.76 624.437,672.17 C 630.307,674.17 633.687,680 634.007,685.97 C 630.747,686.01 627.487,686.01 624.237,685.98 M 637.887,686 C 637.657,677.91 632.497,669.88 624.257,668.16 C 624.237,646.11 624.267,624.07 624.237,602.019 C 629.097,601.989 633.957,602 638.827,602.01 C 641.087,622.66 643.437,643.3 645.677,663.96 C 645.907,665.5 645.867,667.22 646.917,668.5 C 648.817,669.17 650.067,667.83 650.057,665.96 C 652.457,644.65 654.807,623.33 657.167,602.019 C 662.107,601.989 667.047,602 671.997,602 C 671.997,624.04 672.007,646.07 671.987,668.11 C 669.407,668.98 666.707,669.82 664.627,671.66 C 660.377,675.14 658.507,680.67 658.107,686 C 651.367,686 644.627,686 637.887,686 M 661.997,685.98 C 662.257,679.92 665.817,673.81 671.967,672.19 C 672.027,676.79 671.987,681.4 671.997,686 C 668.657,686.01 665.327,686.01 661.997,685.98 Z" marker-start="none" marker-end="none"/>
     </g>
    </g>
    <g id="Group_13" fill="#40003f" stroke-linejoin="miter" stroke="none" stroke-width="1" stroke-miterlimit="79.8403193612775">
     <path d="M 56.669,697.999 L 59.509,697.999 C 60.149,694.089 60.079,690.119 59.979,686.169 C 64.389,686.239 68.609,684.779 72.009,681.969 C 75.419,684.719 79.639,686.049 84.009,685.899 C 84.059,689.929 83.549,694.059 84.669,697.999 L 87.509,697.999 C 88.239,693.669 88.009,689.269 87.999,684.899 C 90.069,683.469 93.199,682.569 93.989,679.959 C 93.999,673.909 89.609,669.059 85.249,665.379 C 95.019,657.849 103.709,648.709 110.119,638.139 C 114.809,630.088 118.469,620.799 117.739,611.359 C 112.519,605.638 104.179,605.499 97.019,604.719 C 91.039,601.168 84.439,598.719 77.479,597.999 L 66.079,597.999 C 59.539,598.888 53.189,600.948 47.589,604.458 C 43.499,605.528 39.089,605.028 35.029,606.409 C 31.739,607.448 27.759,608.738 26.099,611.979 C 25.819,622.999 30.479,633.529 36.619,642.459 C 42.749,651.219 50.219,659.059 58.709,665.579 C 54.299,669.469 49.439,674.509 50.099,680.879 C 51.679,682.769 53.939,683.869 55.989,685.149 C 56.129,689.429 55.489,693.819 56.669,697.999 M 54.129,679.679 C 54.969,673.179 60.489,668.969 65.499,665.489 C 60.469,662.319 56.029,658.319 51.779,654.189 C 40.629,643.189 30.829,629.179 30.068,613.028 C 34.739,609.859 40.499,609.119 46.009,608.918 C 46.709,618.639 49.529,628.209 54.179,636.769 C 54.709,638.609 57.179,638.229 58.069,636.879 C 58.169,635.489 57.309,634.289 56.809,633.058 C 52.889,625.168 50.389,616.539 49.899,607.729 C 57.869,602.558 67.769,601.138 77.089,602.068 C 83.009,602.749 89.209,604.179 93.999,607.909 C 93.729,617.469 90.389,626.628 86.249,635.139 C 84.689,637.519 88.999,639.399 89.789,636.809 C 94.429,628.229 97.299,618.659 97.989,608.918 C 103.369,609.278 109.429,609.569 113.749,613.179 C 113.729,620.668 111.099,627.909 107.549,634.419 C 100.489,646.879 90.049,657.159 78.509,665.489 C 83.659,668.679 88.619,673.019 90.009,679.199 C 84.489,683.959 75.799,681.819 71.999,675.949 C 69.859,678.459 67.379,680.979 64.019,681.689 C 60.569,682.669 57.069,681.439 54.129,679.679 Z" marker-start="none" marker-end="none"/>
    </g>
    <g id="Group_14" fill="#000140" stroke-linejoin="miter" stroke="none" stroke-width="1" stroke-miterlimit="79.8403193612775">
     <path d="M 172.706,684.986 C 173.046,686.406 172.736,689.116 174.916,688.956 C 185.946,689.196 196.975,688.946 208.006,689.076 C 209.436,688.956 211.006,689.266 212.326,688.576 C 213.166,687.226 213.056,685.536 213.386,684.016 C 214.676,673.966 219.206,664.506 225.596,656.706 C 233.686,646.476 244.536,639.026 253.866,630.046 C 258.736,625.296 263.326,619.186 262.986,612.016 C 262.966,608.946 259.936,606.825 257.026,607.065 C 247.656,607.026 238.286,607.016 228.916,607.075 C 223.056,607.086 217.246,609.086 212.636,612.726 C 202.906,620.046 198.566,632.285 189.026,639.796 C 188.916,630.556 188.966,621.315 188.996,612.075 C 188.936,610.586 189.126,608.986 188.406,607.615 C 185.596,606.635 182.326,606.766 179.476,607.565 C 178.396,613.425 178.926,619.605 177.506,625.476 C 175.786,635.936 169.916,645.296 168.996,655.926 C 168.946,665.736 171.646,675.286 172.706,684.986 M 176.766,685.046 C 175.736,676.376 173.676,667.856 172.976,659.146 C 172.586,654.666 173.776,649.426 177.986,647.066 C 181.926,644.416 187.236,646.166 191.006,643.196 C 201.106,636.436 205.016,623.906 214.396,616.355 C 218.646,612.616 224.356,610.906 229.966,611.046 C 239.606,611.096 249.246,610.916 258.886,611.156 C 259.636,617.825 255.086,623.325 250.576,627.605 C 240.856,636.885 229.626,644.696 221.496,655.546 C 214.886,664.066 210.556,674.326 209.236,685.046 C 198.416,685.046 187.586,685.046 176.766,685.046 M 176.096,643.606 C 180.396,633.306 182.636,622.196 182.776,611.046 C 183.326,611.046 184.416,611.046 184.966,611.046 C 184.966,621.075 184.966,631.105 184.956,641.136 C 181.886,641.446 178.886,642.266 176.096,643.606 Z" marker-start="none" marker-end="none"/>
    </g>
    <g id="Group_15" fill="#000140" stroke-linejoin="miter" stroke="none" stroke-width="1" stroke-miterlimit="79.8403193612775">
     <path d="M 172.431,526.539 C 175.181,527.549 178.151,526.099 180.981,526.119 C 199.651,524.769 218.391,524.859 237.091,525.349 C 243.841,525.599 250.611,525.879 257.301,526.899 C 260.721,527.449 261.901,523.439 262.941,520.979 C 263.611,518.999 265.191,515.629 262.191,514.819 C 251.551,511.969 240.121,509.949 231.311,502.829 C 225.731,498.669 222.131,492.009 222.021,485.009 C 222.421,482.229 219.511,480.998 217.201,481.059 C 214.861,481.059 211.571,480.769 210.271,483.209 C 209.791,487.078 209.611,491.129 207.631,494.609 C 203.291,503.059 194.251,507.679 185.601,510.569 C 180.251,512.559 174.481,513.129 169.141,515.129 C 167.301,516.029 168.241,518.179 168.641,519.649 C 169.511,522.099 170.321,524.849 172.431,526.539 M 174.17,522.899 C 173.571,521.329 172.981,519.769 172.361,518.209 C 184.391,515.459 197.231,512.239 206.251,503.259 C 211.191,498.539 213.651,491.818 214.091,485.099 C 215.371,485.099 216.661,485.099 217.941,485.089 C 218.411,491.809 220.811,498.559 225.791,503.259 C 234.801,512.239 247.641,515.479 259.681,518.199 C 259.061,519.829 258.381,521.429 257.631,522.999 C 247.211,521.149 236.571,521.509 226.041,521.039 C 208.741,521.129 191.361,520.679 174.17,522.899 Z" marker-start="none" marker-end="none"/>
    </g>
    <g id="Group_16" fill="#403f00" stroke-linejoin="miter" stroke="none" stroke-width="1" stroke-miterlimit="79.8403193612775">
     <g id="Group_17">
      <path d="M 492.828,694.43 C 499.818,696.53 507.418,696.51 514.468,694.68 C 518.118,694.08 519.168,690.06 521.628,687.87 C 525.798,685.78 530.768,685.48 534.558,682.58 C 540.068,678.4 543.108,671.91 545.378,665.55 C 548.378,657.15 551.898,648.89 553.998,640.2 L 553.998,608.559 C 548.188,607.79 542.228,607.57 536.418,608.449 C 535.328,617.949 536.438,627.58 535.918,637.11 C 535.588,640.3 533.498,642.91 532.038,645.65 C 531.948,634.44 532.018,623.22 532.008,612.01 C 531.938,608.169 532.368,604.269 531.518,600.489 C 528.078,599.669 524.508,600.029 521.008,599.989 C 507.978,600 494.958,600.029 481.938,599.959 C 480.088,599.989 478.218,600.04 476.408,600.47 C 475.998,602.29 475.998,604.16 475.948,606.019 C 476.018,619.25 476.028,632.48 475.958,645.71 C 474.618,643.23 472.908,640.86 472.208,638.1 C 471.358,628.269 472.808,618.29 471.528,608.5 C 465.758,607.449 459.808,607.93 453.998,608.47 L 453.998,640.04 C 455.968,648.82 459.618,657.09 462.608,665.54 C 464.878,671.9 467.888,678.4 473.428,682.57 C 477.198,685.47 482.158,685.78 486.328,687.84 C 488.708,689.83 489.598,693.55 492.828,694.43 M 494.228,690.81 C 495.688,686.5 498.828,681.71 503.988,681.99 C 509.168,681.69 512.298,686.5 513.758,690.83 C 507.348,692.4 500.628,692.41 494.228,690.81 M 490.208,685.57 C 491.128,681.69 492.098,677.82 493.088,673.96 C 494.798,675.67 496.518,677.39 498.248,679.09 C 495.198,681.2 492.758,684.03 491.218,687.4 C 490.958,686.94 490.458,686.03 490.208,685.57 M 516.758,687.38 C 515.248,684 512.768,681.23 509.768,679.1 C 511.458,677.41 513.148,675.7 514.828,673.98 C 515.898,677.79 516.888,681.63 517.768,685.49 C 517.518,685.96 517.008,686.91 516.758,687.38 M 480.508,681.54 C 482.488,671.57 483.858,660.97 480.138,651.23 C 479.798,635.5 480.098,619.739 479.998,604 C 495.998,604 511.998,604 527.998,604 C 528.018,618.989 527.958,633.98 528.018,648.98 C 528.068,651.87 527.358,654.7 526.778,657.51 C 525.468,665.44 526.088,673.58 527.598,681.44 C 525.508,682.02 523.528,682.9 521.438,683.47 C 520.108,678.74 519.278,673.86 517.728,669.18 C 517.488,667.62 515.478,667.7 514.598,668.62 C 511.208,671.53 508.478,675.13 504.988,677.92 C 504.498,677.92 503.498,677.92 502.998,677.92 C 499.298,674.99 496.498,671.07 492.788,668.15 C 492.328,668.11 491.418,668.04 490.958,668.01 C 488.578,672.83 488.138,678.35 486.558,683.46 C 484.548,682.81 482.528,682.16 480.508,681.54 M 467.948,668.17 C 464.858,660.17 461.738,652.19 459.148,644.02 C 458.238,641.43 457.918,638.69 457.968,635.96 C 458.028,627.97 457.988,619.989 457.998,612 C 461.328,612 464.668,612 467.998,612 C 468.058,620.69 467.878,629.379 468.058,638.06 C 469.538,644.96 475.018,650.12 477.588,656.55 C 479.328,664.3 478.308,672.38 476.678,680.06 C 472.728,676.98 469.728,672.84 467.948,668.17 M 531.328,680.08 C 530.118,671.85 529.168,663.31 531.198,655.13 C 533.618,649.48 538.078,644.8 539.838,638.84 C 540.248,629.91 539.868,620.949 539.998,612 C 543.328,612 546.668,612 549.998,612 C 550.008,619.97 549.968,627.94 550.028,635.91 C 550.078,638.65 549.758,641.41 548.858,644.01 C 546.248,652.16 543.138,660.14 540.068,668.12 C 538.288,672.82 535.238,676.94 531.328,680.08 Z" marker-start="none" marker-end="none"/>
     </g>
    </g>
   </g>
  </g>
 </g>
</svg>
