<?xml version="1.0" encoding="UTF-8" ?>
<!DOCTYPE svg PUBLIC "-//W3C//DTD SVG 1.1//EN" "http://www.w3.org/Graphics/SVG/1.1/DTD/svg11.dtd">
<svg width="100pt" height="100pt" viewBox="0 0 100 100" version="1.1" xmlns="http://www.w3.org/2000/svg">
<g id="#000000ff">
<path fill="#0e85c2" class="clIconFIll" opacity="1.00" d=" M 46.19 0.00 L 52.47 0.00 C 55.42 0.29 58.40 0.68 61.24 1.59 C 64.52 2.68 66.15 6.27 69.44 7.32 C 72.44 8.41 75.65 8.97 78.42 10.61 C 83.79 13.90 88.14 18.99 89.99 25.06 C 92.95 34.27 97.57 42.89 100.00 52.28 L 100.00 85.43 C 94.19 86.23 88.24 86.41 82.43 85.55 C 81.26 77.07 82.59 68.44 81.82 59.92 C 81.15 56.58 79.43 53.58 78.04 50.50 C 77.95 62.34 78.02 74.18 78.00 86.02 C 77.94 90.68 78.43 95.42 77.31 100.00 L 22.58 100.00 C 21.79 83.35 22.52 66.65 22.20 49.98 C 20.36 54.14 17.74 58.26 17.97 62.99 C 17.65 70.50 18.72 78.13 17.47 85.56 C 11.70 86.47 5.79 86.11 0.00 85.52 L 0.00 52.10 C 2.52 42.80 7.02 34.21 10.01 25.07 C 12.58 16.88 19.54 10.12 27.94 8.14 C 30.70 7.51 33.21 6.16 35.12 4.06 C 37.94 0.99 42.34 0.72 46.19 0.00 M 41.11 5.02 C 44.06 9.48 47.05 13.92 50.00 18.38 C 52.95 13.92 55.94 9.48 58.89 5.02 C 53.05 3.65 46.95 3.65 41.11 5.02 M 35.61 9.33 C 36.41 14.66 38.17 19.80 39.32 25.07 C 41.90 23.80 44.47 22.52 47.04 21.24 C 43.85 16.45 40.76 11.57 37.35 6.93 C 36.91 7.53 36.04 8.73 35.61 9.33 M 52.96 21.25 C 55.53 22.52 58.10 23.80 60.68 25.07 C 61.83 19.79 63.58 14.64 64.41 9.30 C 63.94 8.71 63.02 7.53 62.56 6.93 C 59.26 11.64 56.13 16.45 52.96 21.25 M 26.45 12.84 C 27.41 19.47 27.84 26.20 27.35 32.89 C 27.08 36.26 26.24 39.57 26.23 42.97 C 26.27 60.64 26.25 78.32 26.24 95.99 C 42.16 96.01 58.08 95.99 74.00 96.00 C 74.01 79.33 73.98 62.67 74.02 46.00 C 74.09 40.61 72.68 35.34 72.54 29.96 C 72.26 24.22 72.62 18.47 73.53 12.79 C 71.79 12.26 70.04 11.74 68.30 11.23 C 66.92 16.54 65.62 21.88 64.28 27.20 C 63.89 28.33 63.53 30.45 61.82 29.96 C 57.71 28.44 53.97 26.08 50.00 24.25 C 46.51 25.93 43.11 27.81 39.60 29.44 C 38.53 30.12 36.57 30.40 36.27 28.74 C 34.44 22.95 33.32 16.95 31.59 11.13 C 29.88 11.70 28.16 12.26 26.45 12.84 M 13.89 26.02 C 11.19 34.94 6.63 43.20 4.23 52.20 C 3.68 62.11 4.16 72.07 4.00 82.00 C 7.33 82.00 10.67 82.00 14.00 82.00 C 13.99 76.00 14.03 70.00 13.97 64.00 C 13.32 55.08 19.77 47.95 22.31 39.84 C 24.15 31.56 23.57 22.99 22.65 14.64 C 18.84 17.61 15.26 21.26 13.89 26.02 M 77.29 14.65 C 76.15 23.12 76.06 31.83 77.75 40.23 C 80.19 46.59 84.01 52.42 85.82 59.03 C 86.27 66.67 85.86 74.35 86.00 82.00 C 89.33 82.00 92.67 82.00 96.00 82.00 C 96.00 73.34 95.98 64.67 96.02 56.01 C 96.07 53.60 95.73 51.19 94.87 48.93 C 92.02 40.93 88.33 33.24 85.79 25.13 C 84.31 20.73 80.89 17.40 77.29 14.65 Z" />
<path fill="#0e85c2" class="clIconFIll" opacity="1.00" d=" M 40.32 42.36 C 42.82 41.22 46.18 43.13 45.92 46.01 C 46.26 49.47 41.35 51.32 39.15 48.77 C 37.17 46.95 37.91 43.43 40.32 42.36 Z" />
<path fill="#0e85c2" class="clIconFIll" opacity="1.00" d=" M 58.34 42.35 C 60.83 41.24 64.16 43.12 63.92 45.98 C 64.29 49.41 59.48 51.29 57.23 48.86 C 55.16 47.05 55.87 43.42 58.34 42.35 Z" />
<path fill="#0e85c2" class="clIconFIll" opacity="1.00" d=" M 40.32 58.36 C 42.81 57.23 46.16 59.12 45.92 61.98 C 46.29 65.45 41.37 67.32 39.16 64.79 C 37.17 62.96 37.90 59.44 40.32 58.36 Z" />
<path fill="#0e85c2" class="clIconFIll" opacity="1.00" d=" M 58.27 58.39 C 60.77 57.18 64.18 59.12 63.92 62.01 C 64.26 65.46 59.39 67.31 57.17 64.80 C 55.19 63.00 55.88 59.48 58.27 58.39 Z" />
<path fill="#0e85c2" class="clIconFIll" opacity="1.00" d=" M 40.28 74.39 C 42.75 73.19 46.15 75.09 45.92 77.96 C 46.31 81.42 41.41 83.32 39.18 80.81 C 37.19 79.01 37.87 75.47 40.28 74.39 Z" />
<path fill="#0e85c2" class="clIconFIll" opacity="1.00" d=" M 58.35 74.34 C 63.04 72.10 66.32 79.70 61.65 81.66 C 56.95 83.89 53.63 76.31 58.35 74.34 Z" />
</g>
</svg>
