<?xml version="1.0" encoding="UTF-8" ?>
<!DOCTYPE svg PUBLIC "-//W3C//DTD SVG 1.1//EN" "http://www.w3.org/Graphics/SVG/1.1/DTD/svg11.dtd">
<svg width="100pt" height="100pt" viewBox="0 0 100 100" version="1.1" xmlns="http://www.w3.org/2000/svg">
<g id="#000000ff">
<path fill="#0e85c2" class="clIconFIll" opacity="1.00" d=" M 38.83 3.57 C 45.82 1.47 53.42 1.49 60.47 3.32 C 64.12 3.92 65.17 7.94 67.63 10.13 C 71.80 12.22 76.77 12.52 80.56 15.42 C 86.07 19.60 89.11 26.09 91.38 32.45 C 94.38 40.85 97.90 49.11 100.00 57.80 L 100.00 89.44 C 94.19 90.21 88.23 90.43 82.42 89.55 C 81.33 80.05 82.44 70.42 81.92 60.89 C 81.59 57.70 79.50 55.09 78.04 52.35 C 77.95 63.56 78.02 74.78 78.01 85.99 C 77.94 89.83 78.37 93.73 77.52 97.51 C 74.08 98.33 70.51 97.97 67.01 98.01 C 53.98 98.00 40.96 97.97 27.94 98.04 C 26.09 98.01 24.22 97.96 22.41 97.53 C 22.00 95.71 22.00 93.84 21.95 91.98 C 22.02 78.75 22.03 65.52 21.96 52.29 C 20.62 54.77 18.91 57.14 18.21 59.90 C 17.36 69.73 18.81 79.71 17.53 89.50 C 11.76 90.55 5.81 90.07 0.00 89.53 L 0.00 57.96 C 1.97 49.18 5.62 40.91 8.61 32.46 C 10.88 26.10 13.89 19.60 19.43 15.43 C 23.20 12.53 28.16 12.22 32.33 10.16 C 34.71 8.17 35.60 4.45 38.83 3.57 M 40.23 7.19 C 41.69 11.50 44.83 16.29 49.99 16.01 C 55.17 16.31 58.30 11.50 59.76 7.17 C 53.35 5.60 46.63 5.59 40.23 7.19 M 36.21 12.43 C 37.13 16.31 38.10 20.18 39.09 24.04 C 40.80 22.33 42.52 20.61 44.25 18.91 C 41.20 16.80 38.76 13.97 37.22 10.60 C 36.96 11.06 36.46 11.97 36.21 12.43 M 62.76 10.62 C 61.25 14.00 58.77 16.77 55.77 18.90 C 57.46 20.59 59.15 22.30 60.83 24.02 C 61.90 20.21 62.89 16.37 63.77 12.51 C 63.52 12.04 63.01 11.09 62.76 10.62 M 26.51 16.46 C 28.49 26.43 29.86 37.03 26.14 46.77 C 25.80 62.50 26.10 78.26 26.00 94.00 C 42.00 94.00 58.00 94.00 74.00 94.00 C 74.02 79.01 73.96 64.02 74.02 49.02 C 74.07 46.13 73.36 43.30 72.78 40.49 C 71.47 32.56 72.09 24.42 73.60 16.56 C 71.51 15.98 69.53 15.10 67.44 14.53 C 66.11 19.26 65.28 24.14 63.73 28.82 C 63.49 30.38 61.48 30.30 60.60 29.38 C 57.21 26.47 54.48 22.87 50.99 20.08 C 50.50 20.08 49.50 20.08 49.00 20.08 C 45.30 23.01 42.50 26.93 38.79 29.85 C 38.33 29.89 37.42 29.96 36.96 29.99 C 34.58 25.17 34.14 19.65 32.56 14.54 C 30.55 15.19 28.53 15.84 26.51 16.46 M 13.95 29.83 C 10.86 37.83 7.74 45.81 5.15 53.98 C 4.24 56.57 3.92 59.31 3.97 62.04 C 4.03 70.03 3.99 78.01 4.00 86.00 C 7.33 86.00 10.67 86.00 14.00 86.00 C 14.06 77.31 13.88 68.62 14.06 59.94 C 15.54 53.04 21.02 47.88 23.59 41.45 C 25.33 33.70 24.31 25.62 22.68 17.94 C 18.73 21.02 15.73 25.16 13.95 29.83 M 77.33 17.92 C 76.12 26.15 75.17 34.69 77.20 42.87 C 79.62 48.52 84.08 53.20 85.84 59.16 C 86.25 68.09 85.87 77.05 86.00 86.00 C 89.33 86.00 92.67 86.00 96.00 86.00 C 96.01 78.03 95.97 70.06 96.03 62.09 C 96.08 59.35 95.76 56.59 94.86 53.99 C 92.25 45.84 89.14 37.86 86.07 29.88 C 84.29 25.18 81.24 21.06 77.33 17.92 Z" />
</g>
</svg>
