<?xml version="1.0" encoding="UTF-8" ?>
<!DOCTYPE svg PUBLIC "-//W3C//DTD SVG 1.1//EN" "http://www.w3.org/Graphics/SVG/1.1/DTD/svg11.dtd">
<svg width="100pt" height="100pt" viewBox="0 0 100 100" version="1.1" xmlns="http://www.w3.org/2000/svg">
<g id="#000000ff">
<path fill="#0e85c2" class="clIconFIll" opacity="1.00" d=" M 34.67 0.00 L 37.51 0.00 C 38.15 3.91 38.08 7.88 37.98 11.83 C 42.39 11.76 46.61 13.22 50.01 16.03 C 53.42 13.28 57.64 11.95 62.01 12.10 C 62.06 8.07 61.55 3.94 62.67 0.00 L 65.51 0.00 C 66.24 4.33 66.01 8.73 66.00 13.10 C 68.07 14.53 71.20 15.43 71.99 18.04 C 72.00 24.09 67.61 28.94 63.25 32.62 C 73.02 40.15 81.71 49.29 88.12 59.86 C 92.81 67.91 96.47 77.20 95.74 86.64 C 90.52 92.36 82.18 92.50 75.02 93.28 C 69.04 96.83 62.44 99.28 55.48 100.00 L 44.08 100.00 C 37.54 99.11 31.19 97.05 25.59 93.54 C 21.50 92.47 17.09 92.97 13.03 91.59 C 9.74 90.55 5.76 89.26 4.10 86.02 C 3.82 75.00 8.48 64.47 14.62 55.54 C 20.75 46.78 28.22 38.94 36.71 32.42 C 32.30 28.53 27.44 23.49 28.10 17.12 C 29.68 15.23 31.94 14.13 33.99 12.85 C 34.13 8.57 33.49 4.18 34.67 0.00 M 32.13 18.32 C 32.97 24.82 38.49 29.03 43.50 32.51 C 38.47 35.68 34.03 39.68 29.78 43.81 C 18.63 54.81 8.83 68.82 8.07 84.97 C 12.74 88.14 18.50 88.88 24.01 89.08 C 24.71 79.36 27.53 69.79 32.18 61.23 C 32.71 59.39 35.18 59.77 36.07 61.12 C 36.17 62.51 35.31 63.71 34.81 64.94 C 30.89 72.83 28.39 81.46 27.90 90.27 C 35.87 95.44 45.77 96.86 55.09 95.93 C 61.01 95.25 67.21 93.82 72.00 90.09 C 71.73 80.53 68.39 71.37 64.25 62.86 C 62.69 60.48 67.00 58.60 67.79 61.19 C 72.43 69.77 75.30 79.34 75.99 89.08 C 81.37 88.72 87.43 88.43 91.75 84.82 C 91.73 77.33 89.10 70.09 85.55 63.58 C 78.49 51.12 68.05 40.84 56.51 32.51 C 61.66 29.32 66.62 24.98 68.01 18.80 C 62.49 14.04 53.80 16.18 50.00 22.05 C 47.86 19.54 45.38 17.02 42.02 16.31 C 38.57 15.33 35.07 16.56 32.13 18.32 Z" />
</g>
</svg>
