<?xml version="1.0" encoding="UTF-8" ?>
<!DOCTYPE svg PUBLIC "-//W3C//DTD SVG 1.1//EN" "http://www.w3.org/Graphics/SVG/1.1/DTD/svg11.dtd">
<svg width="100pt" height="100pt" viewBox="0 0 100 100" version="1.1" xmlns="http://www.w3.org/2000/svg">
<g id="#000000ff">
<path fill="#0e85c2" class="clIconFIll" opacity="1.00" d=" M 6.41 30.51 C 9.16 29.50 12.13 30.95 14.96 30.93 C 33.63 32.28 52.37 32.19 71.07 31.70 C 77.82 31.45 84.59 31.17 91.28 30.15 C 94.70 29.60 95.88 33.61 96.92 36.07 C 97.59 38.05 99.17 41.42 96.17 42.23 C 85.53 45.08 74.10 47.10 65.29 54.22 C 59.71 58.38 56.11 65.04 56.00 72.04 C 56.40 74.82 53.49 76.05 51.18 75.99 C 48.84 75.99 45.55 76.28 44.25 73.84 C 43.77 69.97 43.59 65.92 41.61 62.44 C 37.27 53.99 28.23 49.37 19.58 46.48 C 14.23 44.49 8.46 43.92 3.12 41.92 C 1.28 41.02 2.22 38.87 2.62 37.40 C 3.49 34.95 4.30 32.20 6.41 30.51 M 8.15 34.15 C 7.55 35.72 6.96 37.28 6.34 38.84 C 18.37 41.59 31.21 44.81 40.23 53.79 C 45.17 58.51 47.63 65.23 48.07 71.95 C 49.35 71.95 50.64 71.95 51.92 71.96 C 52.39 65.24 54.79 58.49 59.77 53.79 C 68.78 44.81 81.62 41.57 93.66 38.85 C 93.04 37.22 92.36 35.62 91.61 34.05 C 81.19 35.90 70.55 35.54 60.02 36.01 C 42.72 35.92 25.34 36.37 8.15 34.15 Z" />
</g>
</svg>
