<?xml version="1.0" encoding="UTF-8" ?>
<!DOCTYPE svg PUBLIC "-//W3C//DTD SVG 1.1//EN" "http://www.w3.org/Graphics/SVG/1.1/DTD/svg11.dtd">
<svg width="100pt" height="100pt" viewBox="0 0 100 100" version="1.1" xmlns="http://www.w3.org/2000/svg">
<g id="#000000ff">
<path fill="#0e85c2" class="clIconFIll" opacity="1.00" d=" M 7.74 16.06 C 8.08 14.64 7.77 11.93 9.95 12.09 C 20.98 11.85 32.01 12.10 43.04 11.97 C 44.47 12.09 46.04 11.78 47.36 12.47 C 48.20 13.82 48.09 15.51 48.42 17.03 C 49.71 27.08 54.24 36.54 60.63 44.34 C 68.72 54.57 79.57 62.02 88.90 71.00 C 93.77 75.75 98.36 81.86 98.02 89.03 C 98.00 92.10 94.97 94.22 92.06 93.98 C 82.69 94.02 73.32 94.03 63.95 93.97 C 58.09 93.96 52.28 91.96 47.67 88.32 C 37.94 81.00 33.60 68.76 24.06 61.25 C 23.95 70.49 24.00 79.73 24.03 88.97 C 23.97 90.46 24.16 92.06 23.44 93.43 C 20.63 94.41 17.36 94.28 14.51 93.48 C 13.43 87.62 13.96 81.44 12.54 75.57 C 10.82 65.11 4.95 55.75 4.03 45.12 C 3.98 35.31 6.68 25.76 7.74 16.06 M 11.80 16.00 C 10.77 24.67 8.71 33.19 8.01 41.90 C 7.62 46.38 8.81 51.62 13.02 53.98 C 16.96 56.63 22.27 54.88 26.04 57.85 C 36.14 64.61 40.05 77.14 49.43 84.69 C 53.68 88.43 59.39 90.14 65.00 90.00 C 74.64 89.95 84.28 90.13 93.92 89.89 C 94.67 83.22 90.12 77.72 85.61 73.44 C 75.89 64.16 64.66 56.35 56.53 45.50 C 49.92 36.98 45.59 26.72 44.27 16.00 C 33.45 16.00 22.62 16.00 11.80 16.00 M 11.13 57.44 C 15.43 67.74 17.67 78.85 17.81 90.00 C 18.36 90.00 19.45 90.00 20.00 90.00 C 20.00 79.97 20.00 69.94 19.99 59.91 C 16.92 59.60 13.92 58.78 11.13 57.44 Z" />
</g>
</svg>
