<?xml version="1.0" encoding="UTF-8" ?>
<!DOCTYPE svg PUBLIC "-//W3C//DTD SVG 1.1//EN" "http://www.w3.org/Graphics/SVG/1.1/DTD/svg11.dtd">
<svg width="100pt" height="100pt" viewBox="0 0 100 100" version="1.1" xmlns="http://www.w3.org/2000/svg">
<g id="#000000ff">
<path fill="#000000" class="clIconFIll" opacity="1.00" d=" M 32.82 13.79 C 36.86 6.92 45.22 2.83 53.11 4.26 C 60.69 5.37 67.27 11.29 69.25 18.67 C 70.27 22.27 70.16 26.07 69.70 29.74 C 68.57 29.77 67.44 29.78 66.31 29.78 C 65.88 24.31 66.33 18.17 62.30 13.82 C 56.24 5.95 42.93 6.25 37.24 14.40 C 33.61 18.71 34.16 24.54 33.69 29.77 C 32.56 29.78 31.44 29.77 30.31 29.76 C 29.55 24.36 29.87 18.52 32.82 13.79 Z" />
<path fill="#000000" class="clIconFIll" opacity="1.00" d=" M 27.68 35.99 C 28.44 34.14 29.62 31.77 32.03 32.09 C 34.38 31.81 35.60 34.10 36.23 35.97 C 45.38 36.02 54.53 36.01 63.68 35.98 C 64.43 34.15 65.59 31.80 67.98 32.08 C 70.35 31.79 71.61 34.08 72.23 35.98 C 75.94 36.26 79.87 35.39 83.45 36.52 C 86.08 45.95 88.07 55.59 90.04 65.19 C 89.59 65.50 88.69 66.13 88.24 66.44 C 89.32 75.55 91.62 84.58 91.73 93.74 C 89.18 93.97 86.61 94.06 84.05 94.01 C 84.02 94.51 83.97 95.50 83.95 96.00 C 81.98 96.00 80.02 96.00 78.05 96.00 C 78.03 95.50 77.97 94.50 77.95 94.00 C 59.32 94.00 40.68 94.00 22.05 94.00 C 22.03 94.50 21.97 95.50 21.95 96.00 C 19.98 96.00 18.02 96.00 16.05 96.00 C 16.03 95.50 15.98 94.50 15.95 94.00 C 13.50 93.86 10.82 94.47 8.52 93.46 C 7.64 92.07 8.26 90.39 8.38 88.89 C 9.57 81.42 10.59 73.92 11.76 66.44 C 11.31 66.13 10.41 65.50 9.96 65.19 C 11.54 56.54 13.79 48.03 15.63 39.43 C 16.11 38.39 15.88 36.61 17.19 36.22 C 20.66 35.72 24.19 36.11 27.68 35.99 M 19.56 40.01 C 17.88 47.69 15.98 55.33 14.43 63.04 C 37.60 69.50 62.48 69.66 85.61 62.95 C 83.90 55.30 82.17 47.65 80.44 40.01 C 60.14 40.00 39.85 39.99 19.56 40.01 M 15.62 67.42 C 14.52 74.95 13.43 82.47 12.30 89.99 C 37.43 90.00 62.57 90.02 87.70 89.98 C 86.53 82.48 85.44 74.97 84.32 67.46 C 74.96 69.78 65.41 71.37 55.77 71.85 C 54.68 73.70 53.30 75.65 50.97 75.89 C 47.97 76.54 45.49 74.36 44.22 71.87 C 34.57 71.32 24.98 69.82 15.62 67.42 Z" />
</g>
</svg>
