<?xml version="1.0" encoding="UTF-8" ?>
<!DOCTYPE svg PUBLIC "-//W3C//DTD SVG 1.1//EN" "http://www.w3.org/Graphics/SVG/1.1/DTD/svg11.dtd">
<svg width="100pt" height="100pt" viewBox="0 0 100 100" version="1.1" xmlns="http://www.w3.org/2000/svg">
<g id="#000000ff">
<path fill="#000000" class="clIconFIll" opacity="1.00" d=" M 12.08 6.10 C 19.27 2.22 28.39 0.34 36.07 3.94 C 43.03 7.08 47.75 14.36 47.96 21.97 C 48.27 34.64 45.95 47.23 46.55 59.91 C 46.65 68.26 48.55 76.68 47.04 85.00 C 46.15 90.16 42.64 94.93 37.59 96.66 C 30.58 99.20 21.58 98.45 16.35 92.67 C 11.29 86.81 11.40 78.66 9.78 71.49 C 7.40 57.90 1.24 45.20 0.00 31.38 L 0.00 27.51 C 0.32 19.01 4.40 10.29 12.08 6.10 M 22.51 6.52 C 15.67 7.67 8.91 11.62 6.20 18.27 C 1.63 28.54 5.19 39.90 8.21 50.07 C 10.80 58.30 13.10 66.64 14.50 75.16 C 15.46 80.38 15.91 86.16 19.65 90.28 C 23.23 94.29 29.27 94.51 34.19 93.52 C 38.00 92.92 41.36 90.18 42.49 86.46 C 44.91 79.13 43.02 71.40 42.73 63.92 C 41.72 50.93 43.72 37.99 44.02 25.02 C 44.17 19.95 42.98 14.49 39.22 10.84 C 34.93 6.51 28.34 5.14 22.51 6.52 Z" />
<path fill="#000000" class="clIconFIll" opacity="1.00" d=" M 52.20 20.11 C 53.14 10.27 62.09 2.18 71.93 2.01 C 80.01 2.02 88.52 4.84 93.94 11.06 C 97.93 15.60 99.61 21.67 100.00 27.60 L 100.00 31.32 C 98.90 44.34 93.25 56.33 90.72 69.05 C 89.54 74.25 88.98 79.58 87.67 84.75 C 86.34 89.93 82.96 94.90 77.73 96.71 C 71.09 99.07 62.83 98.45 57.43 93.60 C 52.72 89.13 52.10 82.14 52.41 76.02 C 52.96 67.03 53.93 58.03 53.36 49.02 C 53.01 39.38 51.48 29.75 52.20 20.11 M 68.41 6.55 C 61.39 8.14 56.22 14.78 56.09 21.94 C 55.68 33.63 57.79 45.25 57.52 56.94 C 57.61 64.67 56.16 72.34 56.33 80.07 C 56.56 84.74 57.93 90.32 62.59 92.45 C 66.82 94.27 71.81 94.57 76.18 93.08 C 80.85 91.43 83.35 86.54 84.23 81.95 C 85.48 75.67 86.41 69.31 88.03 63.11 C 90.58 52.41 95.12 42.14 95.95 31.08 C 96.42 23.27 93.87 14.47 86.90 10.11 C 81.46 6.82 74.69 5.17 68.41 6.55 Z" />
<path fill="#000000" class="clIconFIll" opacity="1.00" d=" M 12.16 29.15 C 14.25 22.90 18.56 17.60 24.00 13.95 C 33.12 18.91 37.99 29.16 39.48 39.07 C 40.02 45.59 39.90 52.28 38.40 58.67 C 38.08 61.11 34.63 63.45 32.99 60.76 C 31.82 56.47 36.34 53.20 36.27 48.91 C 37.09 38.02 31.23 27.72 23.98 20.01 C 16.42 27.93 13.32 39.36 14.04 50.11 C 14.35 54.36 15.67 59.34 19.96 61.20 C 21.98 61.96 22.27 64.28 20.78 65.74 C 17.38 67.56 14.18 63.76 13.11 60.84 C 9.52 50.76 8.71 39.37 12.16 29.15 Z" />
<path fill="#000000" class="clIconFIll" opacity="1.00" d=" M 63.54 28.39 C 66.09 22.45 70.22 17.03 76.00 13.95 C 81.43 17.60 85.74 22.89 87.82 29.13 C 91.10 38.56 90.43 48.96 87.73 58.45 C 86.87 61.57 85.23 64.95 81.97 66.11 C 79.85 67.13 77.37 64.50 78.47 62.41 C 80.15 60.75 82.78 60.10 83.84 57.84 C 86.20 53.62 86.20 48.61 85.95 43.91 C 85.27 35.19 82.16 26.40 76.02 20.01 C 69.32 27.06 64.11 36.17 63.57 46.05 C 63.29 49.75 64.70 53.23 66.46 56.39 C 67.51 58.09 67.86 60.72 65.85 61.88 C 62.98 62.56 61.47 59.39 61.16 57.07 C 59.73 47.53 59.39 37.34 63.54 28.39 Z" />
</g>
</svg>
