<?xml version="1.0" encoding="UTF-8" ?>
<!DOCTYPE svg PUBLIC "-//W3C//DTD SVG 1.1//EN" "http://www.w3.org/Graphics/SVG/1.1/DTD/svg11.dtd">
<svg width="100pt" height="100pt" viewBox="0 0 100 100" version="1.1" xmlns="http://www.w3.org/2000/svg">
<g id="#000000ff">
<path fill="#000000" class="clIconFIll" opacity="1.00" d=" M 18.21 19.19 C 19.49 17.87 21.76 17.61 23.20 18.81 C 25.71 20.97 27.13 24.05 28.51 26.99 C 27.37 27.40 26.24 27.84 25.11 28.31 C 23.75 26.14 22.34 24.00 20.93 21.85 C 15.01 31.92 10.86 42.91 5.82 53.43 C 14.50 52.17 23.33 51.58 32.09 52.29 C 35.81 52.55 39.43 53.61 43.16 53.65 C 45.12 53.20 46.98 52.39 48.96 52.05 C 52.65 51.47 55.90 54.49 59.60 53.47 C 71.01 51.24 82.77 51.75 94.21 53.50 C 89.11 42.98 85.03 31.94 79.06 21.87 C 77.66 24.00 76.25 26.14 74.89 28.30 C 73.77 27.85 72.64 27.43 71.50 27.02 C 72.99 23.90 74.42 20.39 77.40 18.41 C 80.94 16.81 83.35 20.71 84.65 23.38 C 89.92 34.39 95.01 45.50 100.00 56.64 L 100.00 58.55 C 98.65 59.91 96.16 60.72 96.11 62.95 C 95.69 67.30 95.15 71.85 92.45 75.47 C 88.50 81.49 80.96 83.87 74.07 84.01 C 68.06 84.21 61.31 82.43 57.80 77.15 C 53.75 71.23 53.92 63.72 54.02 56.86 C 51.38 55.88 48.61 55.88 45.98 56.86 C 46.07 63.95 46.24 71.80 41.76 77.75 C 37.68 83.17 30.26 84.49 23.88 83.90 C 17.15 83.42 10.08 80.35 6.78 74.15 C 4.30 70.33 4.40 65.65 3.61 61.33 C 2.52 60.31 1.22 59.56 0.00 58.72 L 0.00 56.63 C 4.57 46.39 9.29 36.22 14.03 26.05 C 15.20 23.65 16.30 21.11 18.21 19.19 M 5.97 57.49 C 8.92 61.83 7.33 67.52 10.09 71.93 C 12.55 76.70 17.76 79.26 22.93 79.77 C 28.29 80.46 34.76 80.02 38.39 75.46 C 42.25 70.49 41.98 63.79 42.01 57.83 C 30.16 55.36 17.88 55.51 5.97 57.49 M 57.99 57.83 C 58.01 64.00 57.74 71.06 62.07 76.02 C 66.12 80.34 72.69 80.46 78.14 79.61 C 83.21 78.97 88.08 75.99 90.30 71.28 C 92.63 67.03 91.02 61.61 94.21 57.71 C 82.29 55.36 69.90 55.42 57.99 57.83 Z" />
</g>
</svg>
