<?xml version="1.0" encoding="UTF-8" ?>
<!DOCTYPE svg PUBLIC "-//W3C//DTD SVG 1.1//EN" "http://www.w3.org/Graphics/SVG/1.1/DTD/svg11.dtd">
<svg width="100pt" height="100pt" viewBox="0 0 100 100" version="1.1" xmlns="http://www.w3.org/2000/svg">
<g id="#000000ff">
<path fill="#000000" class="clIconFIll" opacity="1.00" d=" M 41.44 4.56 C 43.61 3.17 46.75 5.43 45.85 7.90 C 45.43 10.13 42.31 10.81 40.84 9.21 C 39.51 7.95 39.83 5.43 41.44 4.56 Z" />
<path fill="#000000" class="clIconFIll" opacity="1.00" d=" M 49.16 4.12 C 51.49 3.12 53.25 6.91 50.74 7.77 C 48.57 8.97 46.78 5.28 49.16 4.12 Z" />
<path fill="#000000" class="clIconFIll" opacity="1.00" d=" M 55.41 4.57 C 58.66 2.50 61.84 7.63 58.64 9.64 C 55.37 11.90 52.07 6.49 55.41 4.57 Z" />
<path fill="#000000" class="clIconFIll" opacity="1.00" d=" M 33.45 8.55 C 36.64 6.55 39.81 11.57 36.70 13.59 C 33.45 16.00 29.99 10.45 33.45 8.55 Z" />
<path fill="#000000" class="clIconFIll" opacity="1.00" d=" M 63.48 8.53 C 66.69 6.59 69.78 11.58 66.69 13.61 C 63.39 15.98 60.00 10.40 63.48 8.53 Z" />
<path fill="#000000" class="clIconFIll" opacity="1.00" d=" M 27.37 14.48 C 29.25 13.28 32.19 14.73 31.96 17.07 C 32.05 19.55 28.50 20.99 26.91 19.09 C 25.52 17.89 25.77 15.31 27.37 14.48 Z" />
<path fill="#000000" class="clIconFIll" opacity="1.00" d=" M 69.35 14.49 C 72.59 12.31 75.91 17.58 72.55 19.51 C 69.37 21.74 66.08 16.30 69.35 14.49 Z" />
<path fill="#000000" class="clIconFIll" opacity="1.00" d=" M 23.35 22.49 C 26.56 20.32 29.90 25.51 26.60 27.48 C 23.42 29.79 20.06 24.32 23.35 22.49 Z" />
<path fill="#000000" class="clIconFIll" opacity="1.00" d=" M 73.37 22.48 C 76.60 20.33 79.88 25.54 76.58 27.48 C 73.41 29.80 70.05 24.27 73.37 22.48 Z" />
<path fill="#000000" class="clIconFIll" opacity="1.00" d=" M 21.29 30.32 C 24.96 28.66 29.39 33.07 27.64 36.74 C 26.47 40.33 21.18 41.15 19.04 37.99 C 16.89 35.46 18.27 31.38 21.29 30.32 M 22.18 34.16 C 21.64 35.78 22.19 36.34 23.82 35.84 C 24.36 34.22 23.81 33.66 22.18 34.16 Z" />
<path fill="#000000" class="clIconFIll" opacity="1.00" d=" M 75.26 30.33 C 78.91 28.64 83.37 33.02 81.66 36.70 C 80.51 40.31 75.21 41.16 73.06 38.01 C 70.89 35.49 72.25 31.41 75.26 30.33 M 76.16 34.18 C 75.66 35.81 76.22 36.36 77.84 35.82 C 78.34 34.19 77.78 33.64 76.16 34.18 Z" />
<path fill="#000000" class="clIconFIll" opacity="1.00" d=" M 21.25 42.33 C 24.91 40.63 29.37 45.02 27.65 48.71 C 26.51 52.30 21.23 53.16 19.07 50.03 C 16.89 47.51 18.24 43.43 21.25 42.33 M 22.17 46.17 C 21.65 47.79 22.20 48.35 23.83 47.83 C 24.35 46.21 23.80 45.65 22.17 46.17 Z" />
<path fill="#000000" class="clIconFIll" opacity="1.00" d=" M 75.27 42.33 C 78.92 40.64 83.37 45.02 81.66 48.70 C 80.51 52.33 75.15 53.17 73.02 49.96 C 70.90 47.44 72.27 43.40 75.27 42.33 M 76.17 46.17 C 75.65 47.80 76.21 48.35 77.83 47.83 C 78.35 46.20 77.79 45.65 76.17 46.17 Z" />
<path fill="#000000" class="clIconFIll" opacity="1.00" d=" M 25.26 54.33 C 28.05 53.09 31.43 55.28 31.94 58.17 C 32.72 62.00 27.93 65.62 24.56 63.30 C 20.88 61.47 21.38 55.60 25.26 54.33 M 26.18 58.16 C 25.64 59.79 26.19 60.34 27.82 59.84 C 28.36 58.21 27.81 57.66 26.18 58.16 Z" />
<path fill="#000000" class="clIconFIll" opacity="1.00" d=" M 71.25 54.34 C 74.92 52.62 79.41 57.07 77.63 60.75 C 76.46 64.37 71.02 65.17 69.00 61.87 C 66.89 59.38 68.31 55.40 71.25 54.34 M 72.18 58.16 C 71.64 59.79 72.19 60.34 73.82 59.84 C 74.35 58.21 73.81 57.66 72.18 58.16 Z" />
<path fill="#000000" class="clIconFIll" opacity="1.00" d=" M 34.27 60.26 C 38.81 58.55 43.81 64.11 41.46 68.42 C 39.83 72.49 33.77 73.27 31.26 69.63 C 28.58 66.53 30.41 61.33 34.27 60.26 M 35.09 64.08 C 32.78 65.25 34.47 68.83 36.85 67.95 C 39.10 66.62 37.58 63.13 35.09 64.08 Z" />
<path fill="#000000" class="clIconFIll" opacity="1.00" d=" M 62.24 60.27 C 66.79 58.52 71.82 64.09 69.45 68.43 C 67.82 72.51 61.74 73.27 59.24 69.60 C 56.59 66.50 58.43 61.38 62.24 60.27 M 63.10 64.08 C 60.26 65.35 63.39 69.74 65.33 67.40 C 67.12 65.93 65.06 63.22 63.10 64.08 Z" />
<path fill="#000000" class="clIconFIll" opacity="1.00" d=" M 42.76 73.32 C 40.52 69.04 43.40 63.23 48.10 62.26 C 53.60 60.59 59.37 66.44 57.77 71.92 C 57.06 74.98 54.34 76.84 51.66 78.09 C 53.15 81.25 56.87 82.84 58.02 86.12 C 56.56 89.12 54.24 91.59 52.31 94.29 C 51.64 95.44 50.39 95.88 49.23 96.37 C 46.91 92.85 43.83 89.83 41.93 86.04 C 43.32 82.88 46.69 81.15 48.41 78.17 C 46.21 77.01 43.81 75.72 42.76 73.32 M 48.29 66.40 C 45.87 67.46 45.19 71.00 47.18 72.80 C 48.98 74.83 52.59 74.13 53.63 71.66 C 55.28 68.52 51.45 64.64 48.29 66.40 M 46.70 86.16 C 47.80 87.65 48.89 89.14 49.97 90.64 C 51.08 89.15 52.20 87.66 53.31 86.18 C 52.21 85.08 51.11 83.98 50.00 82.88 C 48.90 83.97 47.80 85.06 46.70 86.16 Z" />
</g>
</svg>
