<?xml version="1.0" encoding="UTF-8" ?>
<!DOCTYPE svg PUBLIC "-//W3C//DTD SVG 1.1//EN" "http://www.w3.org/Graphics/SVG/1.1/DTD/svg11.dtd">
<svg width="100pt" height="100pt" viewBox="0 0 100 100" version="1.1" xmlns="http://www.w3.org/2000/svg">
<g id="#000000ff">
<path fill="#000000" class="clIconFIll" opacity="1.00" d=" M 18.22 7.18 C 18.57 5.74 20.44 6.17 21.53 6.16 C 35.93 7.92 50.50 8.57 64.98 7.46 C 70.58 7.23 76.11 6.09 81.73 6.17 C 82.16 10.13 81.64 14.19 82.59 18.09 C 88.46 39.89 94.10 61.76 100.00 83.56 L 100.00 85.05 C 94.20 90.15 86.16 91.11 78.84 92.35 C 63.91 94.25 48.81 94.35 33.80 93.56 C 24.78 92.94 15.64 92.11 7.03 89.16 C 4.40 88.35 2.11 86.78 0.00 85.05 L 0.00 83.56 C 5.88 61.78 11.53 39.94 17.39 18.16 C 18.40 14.58 17.70 10.82 18.22 7.18 M 21.99 10.24 C 22.00 11.23 22.00 13.20 22.00 14.19 C 40.57 16.60 59.43 16.60 78.00 14.19 C 78.00 12.87 78.00 11.55 78.00 10.23 C 59.43 12.60 40.57 12.58 21.99 10.24 M 17.91 31.95 C 23.59 29.90 28.53 25.31 29.45 19.13 C 26.81 18.84 24.16 18.56 21.52 18.26 C 20.29 22.81 19.02 27.36 17.91 31.95 M 33.49 19.43 C 32.60 23.11 31.35 26.86 28.59 29.58 C 25.49 33.21 20.95 34.90 16.69 36.70 C 12.37 52.19 8.51 67.83 4.17 83.32 C 10.15 86.80 17.19 87.73 23.93 88.65 C 41.27 90.51 58.84 90.51 76.18 88.64 C 82.88 87.71 89.90 86.80 95.83 83.30 C 91.53 67.77 87.51 52.16 83.36 36.60 C 75.23 34.35 67.68 28.20 66.52 19.43 C 55.52 20.17 44.49 20.19 33.49 19.43 M 70.56 19.12 C 71.46 25.31 76.41 29.90 82.09 31.95 C 80.98 27.36 79.72 22.80 78.46 18.25 C 75.83 18.56 73.19 18.84 70.56 19.12 Z" />
</g>
</svg>
