<?xml version="1.0" encoding="UTF-8" ?>
<!DOCTYPE svg PUBLIC "-//W3C//DTD SVG 1.1//EN" "http://www.w3.org/Graphics/SVG/1.1/DTD/svg11.dtd">
<svg width="100pt" height="100pt" viewBox="0 0 100 100" version="1.1" xmlns="http://www.w3.org/2000/svg">
<g id="#000000ff">
<path fill="#000000" class="clIconFIll" opacity="1.00" d=" M 22.63 0.00 L 77.17 0.00 C 77.75 1.61 78.07 3.30 78.03 5.01 C 77.96 32.68 78.02 60.35 78.00 88.01 C 77.94 92.01 78.42 96.10 77.27 100.00 L 56.57 100.00 C 54.70 97.79 55.10 94.72 54.67 92.05 C 53.12 78.30 51.74 64.52 50.00 50.80 C 48.10 65.87 46.59 81.00 44.89 96.10 C 44.74 97.45 44.30 98.75 43.78 100.00 L 22.70 100.00 C 22.44 98.35 22.23 96.68 22.22 95.01 C 22.29 67.35 22.22 39.69 22.25 12.03 C 22.27 8.02 22.00 3.98 22.63 0.00 M 26.24 4.02 C 26.24 5.34 26.25 6.67 26.25 7.99 C 42.17 8.01 58.08 8.00 74.00 8.00 C 74.00 6.67 74.00 5.33 74.00 4.00 C 58.08 4.01 42.16 3.98 26.24 4.02 M 26.24 12.02 C 26.32 16.62 26.07 21.24 26.44 25.83 C 32.31 23.83 35.69 18.00 36.01 12.03 C 32.75 11.99 29.49 11.99 26.24 12.02 M 39.89 12.00 C 39.66 20.09 34.50 28.12 26.26 29.84 C 26.24 51.89 26.27 73.93 26.24 95.98 C 31.10 96.01 35.96 96.00 40.83 95.99 C 43.09 75.34 45.44 54.70 47.68 34.04 C 47.91 32.50 47.87 30.78 48.92 29.50 C 50.82 28.83 52.07 30.17 52.06 32.04 C 54.46 53.35 56.81 74.67 59.17 95.98 C 64.11 96.01 69.05 96.00 74.00 96.00 C 74.00 73.96 74.01 51.93 73.99 29.89 C 71.41 29.02 68.71 28.18 66.63 26.34 C 62.38 22.86 60.51 17.33 60.11 12.00 C 53.37 12.00 46.63 12.00 39.89 12.00 M 64.00 12.02 C 64.26 18.08 67.82 24.19 73.97 25.81 C 74.03 21.21 73.99 16.60 74.00 12.00 C 70.66 11.99 67.33 11.99 64.00 12.02 Z" />
</g>
</svg>
