<?xml version="1.0" standalone="no"?>
<!DOCTYPE svg PUBLIC "-//W3C//DTD SVG 1.1//EN" "http://www.w3.org/Graphics/SVG/1.1/DTD/svg11.dtd">
<!--Generator: Xara Designer (www.xara.com), SVG filter version: 3.0.2.3-->
<svg stroke-width="0.501" stroke-linejoin="bevel" fill-rule="evenodd" xmlns:xlink="http://www.w3.org/1999/xlink" xmlns="http://www.w3.org/2000/svg" version="1.1" overflow="visible" width="192pt" height="192pt" viewBox="0 0 192 192">
 <defs>
  <marker id="DefaultArrow2" markerUnits="strokeWidth" viewBox="0 0 1 1" markerWidth="1" markerHeight="1" overflow="visible" orient="auto">
   <!-- REF_ARROW_STRAIGHT (-2) -->
   <g transform="scale(0.0092592592)">
    <!-- 1/108 -->
    <path d="M -9 54 L -9 -54 L 117 0 z"/>
   </g>
  </marker>
  <marker id="DefaultArrow3" markerUnits="strokeWidth" viewBox="0 0 1 1" markerWidth="1" markerHeight="1" overflow="visible" orient="auto">
   <!-- REF_ARROW_ANGLED -->
   <g transform="scale(0.0092592592)">
    <path d="M -27 54 L -9 0 L -27 -54 L 135 0 z"/>
   </g>
  </marker>
  <marker id="DefaultArrow4" markerUnits="strokeWidth" viewBox="0 0 1 1" markerWidth="1" markerHeight="1" overflow="visible" orient="auto">
   <!-- REF_ARROW_ROUNDED -->
   <g transform="scale(0.0092592592)">
    <path d="M -9,0 L -9,-45 C -9,-51.708 2.808,-56.580 9,-54 L 117,-9 C 120.916,-7.369 126.000,-4.242 126,0 C 126,4.242 120.916,7.369 117,9 L 9,54 C 2.808,56.580 -9,51.708 -9,45 z"/>
   </g>
  </marker>
  <marker id="DefaultArrow5" markerUnits="strokeWidth" viewBox="0 0 1 1" markerWidth="1" markerHeight="1" overflow="visible" orient="auto">
   <!-- REF_ARROW_SPOT -->
   <g transform="scale(0.0092592592)">
    <path d="M -54, 0 C -54,29.807 -29.807,54 0,54 C 29.807,54 54,29.807 54,0 C 54,-29.807 29.807,-54 0,-54 C -29.807,-54 -54,-29.807 -54,0 z"/>
   </g>
  </marker>
  <marker id="DefaultArrow6" markerUnits="strokeWidth" viewBox="0 0 1 1" markerWidth="1" markerHeight="1" overflow="visible" orient="auto">
   <!-- REF_ARROW_DIAMOND -->
   <g transform="scale(0.0092592592)">
    <path d="M -63,0 L 0,63 L 63,0 L 0,-63 z"/>
   </g>
  </marker>
  <marker id="DefaultArrow7" markerUnits="strokeWidth" viewBox="0 0 1 1" markerWidth="1" markerHeight="1" overflow="visible" orient="auto">
   <!-- REF_ARROW_FEATHER -->
   <g transform="scale(0.0092592592)">
    <path d="M 18,-54 L 108,-54 L 63,0 L 108,54 L 18, 54 L -36,0 z"/>
   </g>
  </marker>
  <marker id="DefaultArrow8" markerUnits="strokeWidth" viewBox="0 0 1 1" markerWidth="1" markerHeight="1" overflow="visible" orient="auto">
   <!-- REF_ARROW_FEATHER2 -->
   <g transform="scale(0.0092592592)">
    <path d="M -36,0 L 18,-54 L 54,-54 L 18,-18 L 27,-18 L 63,-54 L 99,-54 L 63,-18 L 72,-18 L 108,-54 L 144,-54 L 90,0 L 144,54 L 108,54 L 72,18 L 63,18 L 99,54 L 63,54 L 27,18 L 18,18 L 54,54 L 18,54 z"/>
   </g>
  </marker>
  <marker id="DefaultArrow9" markerUnits="strokeWidth" viewBox="0 0 1 1" markerWidth="1" markerHeight="1" overflow="visible" orient="auto">
   <!-- REF_ARROW_HOLLOWDIAMOND -->
   <g transform="scale(0.0092592592)">
    <path d="M 0,45 L -45,0 L 0, -45 L 45, 0 z M 0, 63 L-63, 0 L 0, -63 L 63, 0 z"/>
   </g>
  </marker>
  <filter id="StainedFilter">
   <feBlend mode="multiply" in2="BackgroundImage" in="SourceGraphic" result="blend"/>
   <feComposite in="blend" in2="SourceAlpha" operator="in" result="comp"/>
  </filter>
  <filter id="BleachFilter">
   <feBlend mode="screen" in2="BackgroundImage" in="SourceGraphic" result="blend"/>
   <feComposite in="blend" in2="SourceAlpha" operator="in" result="comp"/>
  </filter>
  <filter id="InvertTransparencyBitmapFilter">
   <feComponentTransfer>
    <feFuncR type="gamma" amplitude="1.055" exponent=".416666666" offset="-0.055"/>
    <feFuncG type="gamma" amplitude="1.055" exponent=".416666666" offset="-0.055"/>
    <feFuncB type="gamma" amplitude="1.055" exponent=".416666666" offset="-0.055"/>
   </feComponentTransfer>
   <feComponentTransfer>
    <feFuncR type="linear" slope="-1" intercept="1"/>
    <feFuncG type="linear" slope="-1" intercept="1"/>
    <feFuncB type="linear" slope="-1" intercept="1"/>
    <feFuncA type="linear" slope="1" intercept="0"/>
   </feComponentTransfer>
   <feComponentTransfer>
    <feFuncR type="gamma" amplitude="1" exponent="2.4" offset="0"/>
    <feFuncG type="gamma" amplitude="1" exponent="2.4" offset="0"/>
    <feFuncB type="gamma" amplitude="1" exponent="2.4" offset="0"/>
   </feComponentTransfer>
  </filter>
 </defs>
 <g id="Document" fill="none" stroke="black" font-family="Times New Roman" font-size="16" transform="scale(1 -1)">
  <g id="Spread" transform="translate(0 -192)">
   <g id="move">
    <path d="M 35.27,94.129 C 34.751,94.658 34.501,95.277 34.501,95.975 C 34.501,96.685 34.751,97.304 35.27,97.843 L 58.314,120.887 C 58.673,121.236 59.113,121.457 59.621,121.547 C 60.142,121.616 60.63,121.576 61.119,121.426 C 61.638,121.207 62.028,120.887 62.298,120.447 C 62.557,120.018 62.688,119.549 62.688,119.02 L 62.688,106.24 L 85.731,106.24 L 85.731,129.285 L 72.941,129.285 C 72.432,129.295 71.953,129.424 71.524,129.683 C 71.094,129.953 70.765,130.343 70.555,130.841 C 70.395,131.341 70.365,131.841 70.436,132.349 C 70.515,132.849 70.725,133.287 71.094,133.668 L 94.139,156.711 C 94.668,157.232 95.297,157.48 95.985,157.48 C 96.694,157.48 97.314,157.232 97.852,156.711 L 120.897,133.668 C 121.247,133.287 121.476,132.849 121.555,132.349 C 121.626,131.841 121.586,131.341 121.436,130.841 C 121.216,130.343 120.897,129.953 120.468,129.683 C 120.028,129.424 119.559,129.295 119.03,129.285 L 106.25,129.285 L 106.25,106.24 L 129.304,106.24 L 129.304,119.02 C 129.304,119.549 129.434,120.018 129.693,120.447 C 129.964,120.887 130.353,121.207 130.852,121.426 C 131.351,121.576 131.85,121.616 132.36,121.547 C 132.868,121.457 133.318,121.236 133.677,120.887 L 156.722,97.843 C 157.24,97.304 157.49,96.685 157.49,95.975 C 157.49,95.277 157.24,94.658 156.722,94.129 L 133.677,71.084 C 133.418,70.865 133.129,70.694 132.818,70.565 C 132.51,70.425 132.18,70.365 131.831,70.355 C 131.691,70.355 131.52,70.365 131.331,70.375 C 131.141,70.405 130.991,70.455 130.852,70.545 C 130.353,70.755 129.964,71.084 129.693,71.513 C 129.434,71.942 129.304,72.422 129.304,72.932 L 129.304,85.722 L 106.25,85.722 L 106.25,62.677 L 119.03,62.677 C 119.559,62.677 120.028,62.538 120.468,62.267 C 120.897,62.019 121.216,61.629 121.436,61.109 C 121.586,60.621 121.626,60.131 121.555,59.612 C 121.476,59.102 121.247,58.663 120.897,58.304 L 97.852,35.249 C 97.563,35.03 97.264,34.87 96.975,34.73 C 96.675,34.601 96.356,34.53 95.985,34.53 C 95.635,34.53 95.316,34.601 95.017,34.73 C 94.727,34.87 94.429,35.03 94.139,35.249 L 71.094,58.304 C 70.725,58.663 70.515,59.102 70.436,59.612 C 70.365,60.131 70.395,60.621 70.555,61.109 C 70.765,61.629 71.094,62.019 71.524,62.267 C 71.953,62.538 72.432,62.677 72.941,62.677 L 85.731,62.677 L 85.731,85.722 L 62.688,85.722 L 62.688,72.932 C 62.688,72.422 62.557,71.942 62.298,71.513 C 62.028,71.084 61.638,70.755 61.119,70.545 C 61,70.455 60.829,70.405 60.64,70.375 C 60.45,70.365 60.3,70.355 60.161,70.355 C 59.811,70.365 59.473,70.425 59.173,70.565 C 58.863,70.694 58.573,70.865 58.314,71.084 L 35.27,94.129 Z" fill="#191919" fill-rule="nonzero" stroke-linejoin="round" stroke-linecap="round" stroke="none" stroke-width="0.375" marker-start="none" marker-end="none" stroke-miterlimit="79.8403193612775"/>
   </g>
  </g>
 </g>
</svg>
