<svg id="svg5402" xmlns:rdf="http://www.w3.org/1999/02/22-rdf-syntax-ns#" style="stroke-linejoin:bevel;stroke-width:0.501;fill-rule:evenodd" xmlns="http://www.w3.org/2000/svg" height="154.15" viewBox="0 0 123.33152 123.31646" width="154.16" version="1.1" xmlns:cc="http://creativecommons.org/ns#" xmlns:dc="http://purl.org/dc/elements/1.1/" overflow="visible">
	<metadata id="metadata5490">
		<rdf:RDF>
			<cc:Work rdf:about="">
				<dc:format>image/svg+xml</dc:format>
				<dc:type rdf:resource="http://purl.org/dc/dcmitype/StillImage"/>
				<dc:title/>
			</cc:Work>
		</rdf:RDF>
	</metadata>
	<g id="text5492" style="fill:#fff" transform="translate(-32.945 -30.237)">
		<path id="path5497" style="fill:#fff" d="m110.03 30.237c-25.53 0-46.244 20.713-46.244 46.244 0 9.1524 2.5892 17.582 7.1654 24.687l-34.984 34.803c-4.0343 4.0343-4.0343 10.598 0 14.572 1.987 1.987 4.5762 3.0106 7.2858 3.0106 2.529 0 5.2385-1.0236 7.2858-3.0106l34.803-34.984c7.1051 4.5762 15.535 7.1654 24.687 7.1654 25.53 0 46.244-20.713 46.244-46.244 0-25.53-20.713-46.244-46.244-46.244zm0 77.073c-16.98 0-30.829-13.849-30.829-30.829s13.849-30.829 30.829-30.829 30.829 13.849 30.829 30.829-13.849 30.829-30.829 30.829z"/>
	</g>
</svg>
