<?xml version="1.0" standalone="no"?>
<!DOCTYPE svg PUBLIC "-//W3C//DTD SVG 1.1//EN" "http://www.w3.org/Graphics/SVG/1.1/DTD/svg11.dtd">
<!--Generator: Xara Designer (www.xara.com), SVG filter version: 3.0.2.3-->
<svg stroke-width="0.501" stroke-linejoin="bevel" fill-rule="evenodd" xmlns:xlink="http://www.w3.org/1999/xlink" xmlns="http://www.w3.org/2000/svg" version="1.1" overflow="visible" width="192pt" height="192pt" viewBox="0 0 192 192">
 <defs>
  <marker id="DefaultArrow2" markerUnits="strokeWidth" viewBox="0 0 1 1" markerWidth="1" markerHeight="1" overflow="visible" orient="auto">
   <!-- REF_ARROW_STRAIGHT (-2) -->
   <g transform="scale(0.0092592592)">
    <!-- 1/108 -->
    <path d="M -9 54 L -9 -54 L 117 0 z"/>
   </g>
  </marker>
  <marker id="DefaultArrow3" markerUnits="strokeWidth" viewBox="0 0 1 1" markerWidth="1" markerHeight="1" overflow="visible" orient="auto">
   <!-- REF_ARROW_ANGLED -->
   <g transform="scale(0.0092592592)">
    <path d="M -27 54 L -9 0 L -27 -54 L 135 0 z"/>
   </g>
  </marker>
  <marker id="DefaultArrow4" markerUnits="strokeWidth" viewBox="0 0 1 1" markerWidth="1" markerHeight="1" overflow="visible" orient="auto">
   <!-- REF_ARROW_ROUNDED -->
   <g transform="scale(0.0092592592)">
    <path d="M -9,0 L -9,-45 C -9,-51.708 2.808,-56.580 9,-54 L 117,-9 C 120.916,-7.369 126.000,-4.242 126,0 C 126,4.242 120.916,7.369 117,9 L 9,54 C 2.808,56.580 -9,51.708 -9,45 z"/>
   </g>
  </marker>
  <marker id="DefaultArrow5" markerUnits="strokeWidth" viewBox="0 0 1 1" markerWidth="1" markerHeight="1" overflow="visible" orient="auto">
   <!-- REF_ARROW_SPOT -->
   <g transform="scale(0.0092592592)">
    <path d="M -54, 0 C -54,29.807 -29.807,54 0,54 C 29.807,54 54,29.807 54,0 C 54,-29.807 29.807,-54 0,-54 C -29.807,-54 -54,-29.807 -54,0 z"/>
   </g>
  </marker>
  <marker id="DefaultArrow6" markerUnits="strokeWidth" viewBox="0 0 1 1" markerWidth="1" markerHeight="1" overflow="visible" orient="auto">
   <!-- REF_ARROW_DIAMOND -->
   <g transform="scale(0.0092592592)">
    <path d="M -63,0 L 0,63 L 63,0 L 0,-63 z"/>
   </g>
  </marker>
  <marker id="DefaultArrow7" markerUnits="strokeWidth" viewBox="0 0 1 1" markerWidth="1" markerHeight="1" overflow="visible" orient="auto">
   <!-- REF_ARROW_FEATHER -->
   <g transform="scale(0.0092592592)">
    <path d="M 18,-54 L 108,-54 L 63,0 L 108,54 L 18, 54 L -36,0 z"/>
   </g>
  </marker>
  <marker id="DefaultArrow8" markerUnits="strokeWidth" viewBox="0 0 1 1" markerWidth="1" markerHeight="1" overflow="visible" orient="auto">
   <!-- REF_ARROW_FEATHER2 -->
   <g transform="scale(0.0092592592)">
    <path d="M -36,0 L 18,-54 L 54,-54 L 18,-18 L 27,-18 L 63,-54 L 99,-54 L 63,-18 L 72,-18 L 108,-54 L 144,-54 L 90,0 L 144,54 L 108,54 L 72,18 L 63,18 L 99,54 L 63,54 L 27,18 L 18,18 L 54,54 L 18,54 z"/>
   </g>
  </marker>
  <marker id="DefaultArrow9" markerUnits="strokeWidth" viewBox="0 0 1 1" markerWidth="1" markerHeight="1" overflow="visible" orient="auto">
   <!-- REF_ARROW_HOLLOWDIAMOND -->
   <g transform="scale(0.0092592592)">
    <path d="M 0,45 L -45,0 L 0, -45 L 45, 0 z M 0, 63 L-63, 0 L 0, -63 L 63, 0 z"/>
   </g>
  </marker>
  <filter id="StainedFilter">
   <feBlend mode="multiply" in2="BackgroundImage" in="SourceGraphic" result="blend"/>
   <feComposite in="blend" in2="SourceAlpha" operator="in" result="comp"/>
  </filter>
  <filter id="BleachFilter">
   <feBlend mode="screen" in2="BackgroundImage" in="SourceGraphic" result="blend"/>
   <feComposite in="blend" in2="SourceAlpha" operator="in" result="comp"/>
  </filter>
  <filter id="InvertTransparencyBitmapFilter">
   <feComponentTransfer>
    <feFuncR type="gamma" amplitude="1.055" exponent=".416666666" offset="-0.055"/>
    <feFuncG type="gamma" amplitude="1.055" exponent=".416666666" offset="-0.055"/>
    <feFuncB type="gamma" amplitude="1.055" exponent=".416666666" offset="-0.055"/>
   </feComponentTransfer>
   <feComponentTransfer>
    <feFuncR type="linear" slope="-1" intercept="1"/>
    <feFuncG type="linear" slope="-1" intercept="1"/>
    <feFuncB type="linear" slope="-1" intercept="1"/>
    <feFuncA type="linear" slope="1" intercept="0"/>
   </feComponentTransfer>
   <feComponentTransfer>
    <feFuncR type="gamma" amplitude="1" exponent="2.4" offset="0"/>
    <feFuncG type="gamma" amplitude="1" exponent="2.4" offset="0"/>
    <feFuncB type="gamma" amplitude="1" exponent="2.4" offset="0"/>
   </feComponentTransfer>
  </filter>
 </defs>
 <g id="Document" fill="none" stroke="black" font-family="Times New Roman" font-size="16" transform="scale(1 -1)">
  <g id="Spread" transform="translate(0 -192)">
   <g id="move">
    <path d="M 40.661,85.322 C 40.612,85.691 40.622,86.041 40.722,86.381 C 40.831,86.72 40.991,87.02 41.201,87.299 C 41.449,87.658 41.77,87.918 42.129,88.078 C 42.499,88.247 42.878,88.318 43.237,88.318 L 59.023,88.318 C 59.602,88.308 60.111,88.147 60.54,87.818 C 60.969,87.489 61.269,87.039 61.419,86.46 C 61.419,86.46 61.419,86.46 61.419,86.46 C 62.877,81.349 65.273,76.835 68.617,72.891 C 71.942,68.957 75.957,65.863 80.639,63.615 C 85.332,61.359 90.454,60.211 95.996,60.171 C 100.498,60.192 104.742,60.969 108.746,62.498 C 112.74,64.015 116.305,66.182 119.459,68.997 L 104.392,83.934 C 104.044,84.274 103.813,84.703 103.734,85.212 C 103.644,85.722 103.673,86.231 103.783,86.76 C 104.013,87.279 104.352,87.658 104.792,87.918 C 105.252,88.187 105.731,88.318 106.26,88.318 L 154.865,88.318 C 155.594,88.297 156.213,88.058 156.692,87.568 C 157.171,87.089 157.421,86.48 157.451,85.741 L 157.451,37.126 C 157.451,36.597 157.311,36.118 157.041,35.669 C 156.782,35.23 156.392,34.89 155.884,34.67 C 155.734,34.611 155.553,34.57 155.374,34.561 C 155.194,34.551 155.015,34.551 154.865,34.551 C 154.515,34.551 154.186,34.62 153.896,34.751 C 153.607,34.89 153.327,35.049 153.057,35.27 L 133.977,54.479 C 128.895,49.808 123.134,46.183 116.694,43.597 C 110.253,41.001 103.344,39.693 95.996,39.653 C 89.106,39.693 82.597,40.851 76.496,43.118 C 70.386,45.404 64.873,48.599 59.961,52.723 C 55.039,56.836 50.916,61.659 47.6,67.19 C 44.285,72.732 41.97,78.762 40.661,85.322 L 40.661,85.322 C 40.661,85.322 40.661,85.322 40.661,85.322 Z M 151.319,106.69 C 151.369,106.319 151.361,105.971 151.261,105.6 C 151.161,105.242 150.99,104.882 150.781,104.523 C 150.542,104.252 150.252,104.044 149.923,103.904 C 149.583,103.763 149.194,103.684 148.734,103.684 L 132.958,103.684 C 132.379,103.684 131.87,103.854 131.441,104.194 C 131.012,104.523 130.712,104.962 130.562,105.54 C 130.562,105.54 130.562,105.54 130.562,105.54 C 129.095,110.642 126.708,115.176 123.374,119.109 C 120.038,123.053 116.024,126.139 111.342,128.395 C 106.648,130.641 101.527,131.791 95.996,131.841 C 91.493,131.81 87.249,131.041 83.255,129.514 C 79.241,127.997 75.678,125.82 72.522,123.014 L 87.589,108.067 C 87.939,107.717 88.168,107.298 88.247,106.79 C 88.327,106.29 88.318,105.771 88.197,105.242 C 87.968,104.732 87.629,104.342 87.189,104.083 C 86.73,103.813 86.251,103.684 85.722,103.684 L 37.116,103.684 C 36.388,103.704 35.768,103.954 35.289,104.433 C 34.81,104.921 34.561,105.531 34.541,106.26 L 34.541,154.884 C 34.541,155.394 34.67,155.892 34.93,156.332 C 35.199,156.782 35.589,157.111 36.099,157.34 C 36.257,157.39 36.418,157.43 36.607,157.44 C 36.797,157.451 36.967,157.461 37.116,157.451 C 37.466,157.451 37.795,157.39 38.085,157.251 C 38.374,157.121 38.654,156.951 38.914,156.732 L 58.004,137.531 C 63.086,142.194 68.848,145.819 75.288,148.415 C 81.728,151 88.637,152.319 95.996,152.359 C 102.875,152.319 109.386,151.161 115.505,148.884 C 121.626,146.598 127.147,143.392 132.07,139.289 C 137.002,135.175 141.125,130.353 144.431,124.801 C 147.746,119.27 150.032,113.23 151.319,106.69 L 151.319,106.69 C 151.319,106.69 151.319,106.69 151.319,106.69 Z" fill="#191919" fill-rule="nonzero" stroke-linejoin="round" stroke-linecap="round" stroke="none" stroke-width="0.375" marker-start="none" marker-end="none" stroke-miterlimit="79.8403193612775"/>
   </g>
  </g>
 </g>
</svg>
