<?xml version="1.0" encoding="UTF-8" standalone="no"?>
<!--Generator: Xara Designer (www.xara.com), SVG filter version: 3.0.2.3-->

<svg
   xmlns:dc="http://purl.org/dc/elements/1.1/"
   xmlns:cc="http://creativecommons.org/ns#"
   xmlns:rdf="http://www.w3.org/1999/02/22-rdf-syntax-ns#"
   xmlns:svg="http://www.w3.org/2000/svg"
   xmlns="http://www.w3.org/2000/svg"
   xmlns:sodipodi="http://sodipodi.sourceforge.net/DTD/sodipodi-0.dtd"
   xmlns:inkscape="http://www.inkscape.org/namespaces/inkscape"
   stroke-width="0.501"
   stroke-linejoin="bevel"
   fill-rule="evenodd"
   version="1.1"
   overflow="visible"
   width="192pt"
   height="192pt"
   viewBox="0 0 192 192"
   id="svg2"
   inkscape:version="0.91 r13725"
   sodipodi:docname="ui_scu.svg">
  <metadata
     id="metadata93">
    <rdf:RDF>
      <cc:Work
         rdf:about="">
        <dc:format>image/svg+xml</dc:format>
        <dc:type
           rdf:resource="http://purl.org/dc/dcmitype/StillImage" />
      </cc:Work>
    </rdf:RDF>
  </metadata>
  <sodipodi:namedview
     pagecolor="#ffffff"
     bordercolor="#666666"
     borderopacity="1"
     objecttolerance="10"
     gridtolerance="10"
     guidetolerance="10"
     inkscape:pageopacity="0"
     inkscape:pageshadow="2"
     inkscape:window-width="1871"
     inkscape:window-height="1056"
     id="namedview91"
     showgrid="false"
     inkscape:zoom="2.7812867"
     inkscape:cx="162.27234"
     inkscape:cy="120.40095"
     inkscape:window-x="49"
     inkscape:window-y="24"
     inkscape:window-maximized="1"
     inkscape:current-layer="svg2" />
  <defs
     id="defs4">
    <marker
       id="DefaultArrow2"
       markerUnits="strokeWidth"
       viewBox="0 0 1 1"
       markerWidth="1"
       markerHeight="1"
       overflow="visible"
       orient="auto">
      <!-- REF_ARROW_STRAIGHT (-2) -->
      <g
         transform="scale(0.0092592592)"
         id="g7">
        <!-- 1/108 -->
        <path
           d="M -9 54 L -9 -54 L 117 0 z"
           id="path9" />
      </g>
    </marker>
    <marker
       id="DefaultArrow3"
       markerUnits="strokeWidth"
       viewBox="0 0 1 1"
       markerWidth="1"
       markerHeight="1"
       overflow="visible"
       orient="auto">
      <!-- REF_ARROW_ANGLED -->
      <g
         transform="scale(0.0092592592)"
         id="g12">
        <path
           d="M -27 54 L -9 0 L -27 -54 L 135 0 z"
           id="path14" />
      </g>
    </marker>
    <marker
       id="DefaultArrow4"
       markerUnits="strokeWidth"
       viewBox="0 0 1 1"
       markerWidth="1"
       markerHeight="1"
       overflow="visible"
       orient="auto">
      <!-- REF_ARROW_ROUNDED -->
      <g
         transform="scale(0.0092592592)"
         id="g17">
        <path
           d="M -9,0 L -9,-45 C -9,-51.708 2.808,-56.580 9,-54 L 117,-9 C 120.916,-7.369 126.000,-4.242 126,0 C 126,4.242 120.916,7.369 117,9 L 9,54 C 2.808,56.580 -9,51.708 -9,45 z"
           id="path19" />
      </g>
    </marker>
    <marker
       id="DefaultArrow5"
       markerUnits="strokeWidth"
       viewBox="0 0 1 1"
       markerWidth="1"
       markerHeight="1"
       overflow="visible"
       orient="auto">
      <!-- REF_ARROW_SPOT -->
      <g
         transform="scale(0.0092592592)"
         id="g22">
        <path
           d="M -54, 0 C -54,29.807 -29.807,54 0,54 C 29.807,54 54,29.807 54,0 C 54,-29.807 29.807,-54 0,-54 C -29.807,-54 -54,-29.807 -54,0 z"
           id="path24" />
      </g>
    </marker>
    <marker
       id="DefaultArrow6"
       markerUnits="strokeWidth"
       viewBox="0 0 1 1"
       markerWidth="1"
       markerHeight="1"
       overflow="visible"
       orient="auto">
      <!-- REF_ARROW_DIAMOND -->
      <g
         transform="scale(0.0092592592)"
         id="g27">
        <path
           d="M -63,0 L 0,63 L 63,0 L 0,-63 z"
           id="path29" />
      </g>
    </marker>
    <marker
       id="DefaultArrow7"
       markerUnits="strokeWidth"
       viewBox="0 0 1 1"
       markerWidth="1"
       markerHeight="1"
       overflow="visible"
       orient="auto">
      <!-- REF_ARROW_FEATHER -->
      <g
         transform="scale(0.0092592592)"
         id="g32">
        <path
           d="M 18,-54 L 108,-54 L 63,0 L 108,54 L 18, 54 L -36,0 z"
           id="path34" />
      </g>
    </marker>
    <marker
       id="DefaultArrow8"
       markerUnits="strokeWidth"
       viewBox="0 0 1 1"
       markerWidth="1"
       markerHeight="1"
       overflow="visible"
       orient="auto">
      <!-- REF_ARROW_FEATHER2 -->
      <g
         transform="scale(0.0092592592)"
         id="g37">
        <path
           d="M -36,0 L 18,-54 L 54,-54 L 18,-18 L 27,-18 L 63,-54 L 99,-54 L 63,-18 L 72,-18 L 108,-54 L 144,-54 L 90,0 L 144,54 L 108,54 L 72,18 L 63,18 L 99,54 L 63,54 L 27,18 L 18,18 L 54,54 L 18,54 z"
           id="path39" />
      </g>
    </marker>
    <marker
       id="DefaultArrow9"
       markerUnits="strokeWidth"
       viewBox="0 0 1 1"
       markerWidth="1"
       markerHeight="1"
       overflow="visible"
       orient="auto">
      <!-- REF_ARROW_HOLLOWDIAMOND -->
      <g
         transform="scale(0.0092592592)"
         id="g42">
        <path
           d="M 0,45 L -45,0 L 0, -45 L 45, 0 z M 0, 63 L-63, 0 L 0, -63 L 63, 0 z"
           id="path44" />
      </g>
    </marker>
    <filter
       id="StainedFilter">
      <feBlend
         mode="multiply"
         in2="BackgroundImage"
         in="SourceGraphic"
         result="blend"
         id="feBlend47" />
      <feComposite
         in="blend"
         in2="SourceAlpha"
         operator="in"
         result="comp"
         id="feComposite49" />
    </filter>
    <filter
       id="BleachFilter">
      <feBlend
         mode="screen"
         in2="BackgroundImage"
         in="SourceGraphic"
         result="blend"
         id="feBlend52" />
      <feComposite
         in="blend"
         in2="SourceAlpha"
         operator="in"
         result="comp"
         id="feComposite54" />
    </filter>
    <filter
       id="InvertTransparencyBitmapFilter">
      <feComponentTransfer
         id="feComponentTransfer57">
        <feFuncR
           type="gamma"
           amplitude="1.055"
           exponent=".416666666"
           offset="-0.055"
           id="feFuncR59" />
        <feFuncG
           type="gamma"
           amplitude="1.055"
           exponent=".416666666"
           offset="-0.055"
           id="feFuncG61" />
        <feFuncB
           type="gamma"
           amplitude="1.055"
           exponent=".416666666"
           offset="-0.055"
           id="feFuncB63" />
      </feComponentTransfer>
      <feComponentTransfer
         id="feComponentTransfer65">
        <feFuncR
           type="linear"
           slope="-1"
           intercept="1"
           id="feFuncR67" />
        <feFuncG
           type="linear"
           slope="-1"
           intercept="1"
           id="feFuncG69" />
        <feFuncB
           type="linear"
           slope="-1"
           intercept="1"
           id="feFuncB71" />
        <feFuncA
           type="linear"
           slope="1"
           intercept="0"
           id="feFuncA73" />
      </feComponentTransfer>
      <feComponentTransfer
         id="feComponentTransfer75">
        <feFuncR
           type="gamma"
           amplitude="1"
           exponent="2.4"
           offset="0"
           id="feFuncR77" />
        <feFuncG
           type="gamma"
           amplitude="1"
           exponent="2.4"
           offset="0"
           id="feFuncG79" />
        <feFuncB
           type="gamma"
           amplitude="1"
           exponent="2.4"
           offset="0"
           id="feFuncB81" />
      </feComponentTransfer>
    </filter>
  </defs>
  <g
     id="Document"
     font-size="16"
     transform="matrix(0.76831428,0,0,-0.76831428,22.241829,22.242982)"
     style="font-size:16px;font-family:'Times New Roman';fill:none;stroke:#000000">
    <g
       id="Spread"
       transform="translate(0,-192)">
      <g
         id="move" />
      <g
         id="Layer 2">
        <g
           id="Group"
           stroke-miterlimit="79.8403193612775"
           style="fill:#ffffff;fill-rule:nonzero;stroke:none;stroke-width:0.375;stroke-linecap:round;stroke-linejoin:round;stroke-miterlimit:79.84031677">
          <g
             id="Group_1">
            <path
               d="m 89.128595,67.524594 c 0.297,0.221 0.512,0.485 0.645,0.796 0.131,0.309 0.196,0.604 0.194,0.884 0.002,0.367 -0.063,0.715 -0.194,1.043 -0.133,0.33 -0.348,0.601 -0.645,0.818 l -18.065,18.064 c -0.503,0.511 -1.086,0.765 -1.746,0.767 -0.663,-0.002 -1.26,-0.256 -1.794,-0.767 l -21.785,-21.605 -17.224,17.344 c -0.342,0.355 -0.767,0.576 -1.275,0.661 -0.507,0.085 -1.023,0.065 -1.545,-0.06 -0.511,-0.223 -0.898,-0.558 -1.163,-1.005 -0.264,-0.447 -0.398,-0.934 -0.398,-1.456 l 0,-56.293 c 0.017,-0.74 0.268,-1.349 0.752,-1.83 0.481,-0.484 1.09,-0.735 1.83,-0.752 l 56.291,0 0,0 c 0.737,0.017 1.349,0.268 1.832,0.752 0.483,0.481 0.732,1.09 0.749,1.83 -0.002,0.363 -0.073,0.701 -0.217,1.012 -0.143,0.311 -0.351,0.573 -0.623,0.789 l -17.224,17.222 z m 78.737815,97.763816 c -0.017,0.737 -0.268,1.349 -0.751,1.832 -0.482,0.481 -1.091,0.73 -1.83,0.749 l -56.292,0 c -0.522,-0.002 -1.007,-0.133 -1.456,-0.398 -0.447,-0.263 -0.784,-0.65 -1.005,-1.162 -0.125,-0.523 -0.144,-1.038 -0.06,-1.545 0.085,-0.509 0.305,-0.934 0.66,-1.275 l 17.344,-17.225 -21.785,-21.786 c -0.48,-0.532 -0.719,-1.13 -0.719,-1.792 0,-0.661 0.239,-1.245 0.719,-1.748 l 18.245,-18.24601 c 0.215,-0.21 0.488,-0.372 0.818,-0.486 0.329,-0.113 0.676,-0.171 1.041,-0.173 0.28,0.002 0.575,0.06 0.886,0.173 0.311,0.114 0.575,0.276 0.795,0.486 l 21.785,21.78601 17.224,-17.344 c 0.265,-0.213 0.543,-0.386 0.832,-0.51701 0.29,-0.132 0.612,-0.2 0.968,-0.203 0.155,-0.004 0.324,0.001 0.51,0.015 0.184,0.012 0.355,0.048 0.51,0.104 0.511,0.22401 0.898,0.55801 1.163,1.00601 0.264,0.447 0.398,0.932 0.398,1.456 z"
               id="path89"
               inkscape:connector-curvature="0"
               style="marker-start:none;marker-end:none"
               sodipodi:nodetypes="cccccccccccccscccccccccccccccccccccscccccccccccccsc" />
          </g>
        </g>
      </g>
    </g>
  </g>
  <path
     d="m 101.2794,117.87921 c -0.22819,-0.1698 -0.39337,-0.37263 -0.49556,-0.61158 -0.10065,-0.23741 -0.15059,-0.46406 -0.14905,-0.67919 -0.001,-0.28197 0.0484,-0.54934 0.14905,-0.80135 0.10219,-0.25354 0.26737,-0.46176 0.49556,-0.62848 l 13.8796,-13.87883 c 0.38646,-0.39261 0.83439,-0.58776 1.34148,-0.5893 0.50939,0.002 0.96807,0.19669 1.37835,0.5893 l 16.73773,16.59943 13.23344,-13.32564 c 0.26277,-0.27275 0.5893,-0.44255 0.97961,-0.50786 0.38953,-0.0653 0.78598,-0.0499 1.18704,0.0461 0.39261,0.17134 0.68995,0.42872 0.89355,0.77216 0.20284,0.34343 0.30579,0.7176 0.30579,1.11866 l 0,43.25073 c -0.0131,0.56855 -0.20591,1.03645 -0.57777,1.406 -0.36956,0.37187 -0.83747,0.56472 -1.40602,0.57778 l -43.24918,0 0,0 c -0.56624,-0.013 -1.03645,-0.20591 -1.40755,-0.57778 -0.37109,-0.36955 -0.5624,-0.83745 -0.57547,-1.406 0.001,-0.27891 0.0561,-0.5386 0.16673,-0.77754 0.10987,-0.23894 0.26968,-0.44025 0.47866,-0.6062 L 117.87883,134.6177 Z M 40.784014,42.765875 c 0.0131,-0.566248 0.20592,-1.036456 0.57701,-1.407552 0.37033,-0.369559 0.83823,-0.560869 1.40602,-0.575467 l 43.24994,0 c 0.40106,0.0015 0.77369,0.102186 1.11866,0.305789 0.34344,0.202067 0.60236,0.499404 0.77216,0.892781 0.096,0.401829 0.11064,0.79751 0.0461,1.187046 -0.0653,0.391072 -0.23434,0.717605 -0.50709,0.979601 l -13.32564,13.234213 16.73772,16.738495 c 0.3688,0.408743 0.55242,0.868195 0.55242,1.376819 0,0.507856 -0.18362,0.956551 -0.55242,1.343014 l -14.01789,14.018669 c -0.16519,0.161347 -0.37494,0.285814 -0.62848,0.373401 -0.25278,0.08682 -0.51938,0.131382 -0.79982,0.132918 -0.21512,-0.0015 -0.44178,-0.0461 -0.68072,-0.132918 -0.23895,-0.08759 -0.44178,-0.212054 -0.61081,-0.373401 L 57.383444,74.120781 44.150004,87.446424 c -0.2036,0.16365 -0.41719,0.296569 -0.63923,0.397226 -0.22282,0.101417 -0.47021,0.153663 -0.74373,0.155968 -0.11909,0.003 -0.24894,-7.68e-4 -0.39184,-0.01153 -0.14138,-0.0092 -0.27275,-0.03688 -0.39184,-0.0799 -0.39262,-0.17211 -0.68995,-0.428727 -0.89355,-0.772932 -0.20284,-0.343436 -0.3058,-0.716068 -0.3058,-1.118665 z"
     id="path89-3"
     inkscape:connector-curvature="0"
     style="font-size:16px;font-family:'Times New Roman';fill:#ffffff;fill-rule:nonzero;stroke:none;stroke-width:0.375;stroke-linecap:round;stroke-linejoin:round;stroke-miterlimit:79.84031677;marker-start:none;marker-end:none"
     sodipodi:nodetypes="cccccccccccccscccccccccccccccccccccscccccccccccccsc" />
</svg>
